<svg width="629" height="210" viewBox="0 0 629 210" fill="none" xmlns="http://www.w3.org/2000/svg">
<path d="M93.7483 32.36C99.1843 32.36 102.496 28.508 102.496 24.476C102.496 19.58 98.5723 18.032 94.9723 16.808C91.9483 15.8 89.1763 14.972 89.1763 12.452C89.1763 10.4 90.9043 8.816 93.5683 8.816C95.9083 8.816 97.6723 9.788 98.8603 11.624L102.064 9.248C100.048 6.908 97.5643 5.36 93.5683 5.36C88.7083 5.36 85.1443 8.528 85.1443 12.524C85.1443 17.348 88.9963 18.788 92.5603 19.94C95.5843 20.912 98.4643 21.776 98.4643 24.476C98.4643 26.816 96.6283 28.688 93.7123 28.688C91.0483 28.688 88.9603 27.356 87.4123 24.872L83.9563 27.572C86.1883 30.452 89.2483 32.36 93.7483 32.36ZM112.953 32.36C115.257 32.36 117.201 31.316 118.425 29.66V32H122.241V14H118.389V23.9C118.389 27.032 116.409 28.976 113.853 28.976C110.937 28.976 109.497 27.104 109.497 24.152V14H105.573V24.476C105.573 29.408 108.201 32.36 112.953 32.36ZM135.794 32.36C140.366 32.36 144.722 28.724 144.722 23C144.722 17.24 140.474 13.64 135.758 13.64C133.346 13.64 131.114 14.72 129.782 16.412V5.72H125.966V32H129.746V29.552C131.078 31.316 133.382 32.36 135.794 32.36ZM135.218 28.832C131.978 28.832 129.566 26.204 129.566 22.964C129.566 19.76 131.978 17.132 135.218 17.132C138.422 17.132 140.906 19.688 140.906 22.964C140.906 26.24 138.422 28.832 135.218 28.832ZM154.351 32.36C159.463 32.396 161.623 29.048 161.623 26.564C161.623 22.82 158.275 21.848 155.323 21.2C152.731 20.624 151.075 20.264 151.075 18.968C151.075 17.816 152.119 16.808 154.171 16.808C155.971 16.808 157.375 17.6 158.203 18.86L161.407 17.096C160.003 14.936 157.519 13.604 154.171 13.604C149.923 13.568 147.223 16.196 147.223 19.04C147.223 22.748 150.391 23.756 153.451 24.404C155.719 24.872 157.807 25.196 157.807 26.636C157.807 27.896 156.691 29.012 154.531 29.012C152.479 29.012 150.895 28.04 149.923 26.384L146.467 28.184C147.979 30.848 150.607 32.36 154.351 32.36ZM173.456 32.36C177.668 32.36 180.656 30.02 182.096 26.708L178.604 25.232C177.776 27.248 175.976 28.76 173.528 28.76C170.288 28.76 167.84 26.168 167.84 23C167.84 19.796 170.252 17.24 173.456 17.24C175.796 17.24 177.632 18.536 178.532 20.624L181.988 19.148C180.62 15.908 177.452 13.64 173.456 13.64C168.2 13.64 164.06 17.708 164.06 23C164.06 28.184 168.128 32.36 173.456 32.36ZM184.852 32H188.74V23.072C188.74 19.328 189.964 17.672 193.096 17.672H195.796V14H193.672C191.296 14 189.64 15.008 188.704 16.772V14H184.852V32ZM198.879 32H202.767V14H198.879V32ZM198.879 11.516H202.767V6.476H198.879V11.516ZM216.477 32.36C221.049 32.36 225.405 28.724 225.405 23C225.405 17.24 221.157 13.64 216.441 13.64C214.029 13.64 211.797 14.72 210.465 16.412V5.72H206.649V32H210.429V29.552C211.761 31.316 214.065 32.36 216.477 32.36ZM215.901 28.832C212.661 28.832 210.249 26.204 210.249 22.964C210.249 19.76 212.661 17.132 215.901 17.132C219.105 17.132 221.589 19.688 221.589 22.964C221.589 26.24 219.105 28.832 215.901 28.832ZM237.478 32.36C241.474 32.36 244.318 30.416 245.902 27.464L242.734 25.7C241.798 27.644 239.926 28.94 237.478 28.94C234.346 28.94 232.186 27.104 231.682 24.332H246.586V22.82C246.586 17.492 242.662 13.64 237.334 13.64C232.042 13.64 227.974 17.78 227.974 23.072C227.974 28.292 231.79 32.36 237.478 32.36ZM237.334 17.024C240.106 17.024 242.086 18.464 242.662 21.056H231.862C232.582 18.68 234.67 17.024 237.334 17.024ZM257.853 17.456H260.913V24.656C260.913 30.272 262.569 32 268.041 32H268.617V28.364C265.305 28.364 264.801 27.86 264.801 24.62V17.456H268.617V14H264.801V7.628L260.913 9.752V14H257.853V17.456ZM279.837 32.36C285.021 32.36 289.197 28.22 289.197 23C289.197 17.744 285.021 13.64 279.837 13.64C274.653 13.64 270.513 17.744 270.513 23C270.513 28.22 274.653 32.36 279.837 32.36ZM279.837 28.76C276.741 28.76 274.329 26.168 274.329 23C274.329 19.832 276.741 17.24 279.837 17.24C282.933 17.24 285.381 19.832 285.381 23C285.381 26.168 282.933 28.76 279.837 28.76ZM300.428 17.456H303.488V24.656C303.488 30.272 305.144 32 310.616 32H311.192V28.364C307.88 28.364 307.376 27.86 307.376 24.62V17.456H311.192V14H307.376V7.628L303.488 9.752V14H300.428V17.456ZM314.438 32H318.29V22.1C318.29 18.932 320.27 16.988 322.826 16.988C325.742 16.988 327.182 18.86 327.182 21.848V32H331.106V21.488C331.106 16.592 328.334 13.64 323.798 13.64C321.458 13.64 319.478 14.684 318.254 16.268V5.72H314.438V32ZM343.65 32.36C347.646 32.36 350.49 30.416 352.074 27.464L348.906 25.7C347.97 27.644 346.098 28.94 343.65 28.94C340.518 28.94 338.358 27.104 337.854 24.332H352.758V22.82C352.758 17.492 348.834 13.64 343.506 13.64C338.214 13.64 334.146 17.78 334.146 23.072C334.146 28.292 337.962 32.36 343.65 32.36ZM343.506 17.024C346.278 17.024 348.258 18.464 348.834 21.056H338.034C338.754 18.68 340.842 17.024 343.506 17.024ZM364.961 32H368.885V11.804L382.457 32H386.597V5.72H382.709V25.592L369.389 5.72H364.961V32ZM399.337 32.36C403.333 32.36 406.177 30.416 407.761 27.464L404.593 25.7C403.657 27.644 401.785 28.94 399.337 28.94C396.205 28.94 394.045 27.104 393.541 24.332H408.445V22.82C408.445 17.492 404.521 13.64 399.193 13.64C393.901 13.64 389.833 17.78 389.833 23.072C389.833 28.292 393.649 32.36 399.337 32.36ZM399.193 17.024C401.965 17.024 403.945 18.464 404.521 21.056H393.721C394.441 18.68 396.529 17.024 399.193 17.024ZM415.705 32H419.485L424.345 19.148L429.133 32H432.841L439.105 14H435.181L430.933 26.78L426.289 14H422.473L417.757 26.78L413.653 14L409.729 13.964L415.705 32ZM448.187 32.36C453.299 32.396 455.459 29.048 455.459 26.564C455.459 22.82 452.111 21.848 449.159 21.2C446.567 20.624 444.911 20.264 444.911 18.968C444.911 17.816 445.955 16.808 448.007 16.808C449.807 16.808 451.211 17.6 452.039 18.86L455.243 17.096C453.839 14.936 451.355 13.604 448.007 13.604C443.759 13.568 441.059 16.196 441.059 19.04C441.059 22.748 444.227 23.756 447.287 24.404C449.555 24.872 451.643 25.196 451.643 26.636C451.643 27.896 450.527 29.012 448.367 29.012C446.315 29.012 444.731 28.04 443.759 26.384L440.303 28.184C441.815 30.848 444.443 32.36 448.187 32.36ZM458.544 32H462.396V5.72H458.544V32ZM474.994 32.36C478.99 32.36 481.834 30.416 483.418 27.464L480.25 25.7C479.314 27.644 477.442 28.94 474.994 28.94C471.862 28.94 469.702 27.104 469.198 24.332H484.102V22.82C484.102 17.492 480.178 13.64 474.85 13.64C469.558 13.64 465.49 17.78 465.49 23.072C465.49 28.292 469.306 32.36 474.994 32.36ZM474.85 17.024C477.622 17.024 479.602 18.464 480.178 21.056H469.378C470.098 18.68 472.186 17.024 474.85 17.024ZM485.736 17.456H488.796V24.656C488.796 30.272 490.452 32 495.924 32H496.5V28.364C493.188 28.364 492.684 27.86 492.684 24.62V17.456H496.5V14H492.684V7.628L488.796 9.752V14H485.736V17.456ZM498.955 17.456H502.015V24.656C502.015 30.272 503.671 32 509.143 32H509.719V28.364C506.407 28.364 505.903 27.86 505.903 24.62V17.456H509.719V14H505.903V7.628L502.015 9.752V14H498.955V17.456ZM521.119 32.36C525.115 32.36 527.959 30.416 529.543 27.464L526.375 25.7C525.439 27.644 523.567 28.94 521.119 28.94C517.987 28.94 515.827 27.104 515.323 24.332H530.227V22.82C530.227 17.492 526.303 13.64 520.975 13.64C515.683 13.64 511.615 17.78 511.615 23.072C511.615 28.292 515.431 32.36 521.119 32.36ZM520.975 17.024C523.747 17.024 525.727 18.464 526.303 21.056H515.503C516.223 18.68 518.311 17.024 520.975 17.024ZM533.32 32H537.208V23.072C537.208 19.328 538.432 17.672 541.564 17.672H544.264V14H542.14C539.764 14 538.108 15.008 537.172 16.772V14H533.32V32Z" fill="#151414"/>
<path d="M1.92109 81H12.6491V79.68H3.31309V72.864H12.6491V71.568H3.31309V64.8H12.6491V63.48H1.92109V81ZM15.8173 81H17.1613V74.304C17.1613 71.856 19.0093 70.008 21.4333 70.008C24.0493 70.008 25.5373 71.712 25.5373 74.28V81H26.9053V74.28C26.9053 70.848 24.8173 68.76 21.6013 68.76C19.5613 68.76 17.9533 69.792 17.1373 71.256V69H15.8173V81ZM28.8969 70.224H30.9609V76.632C30.9609 80.088 31.8729 81 35.2089 81H35.4009V79.728C32.8809 79.728 32.3529 79.272 32.3529 76.608V70.224H35.4009V69H32.3529V65.376L30.9609 66.192V69H28.8969V70.224ZM43.3987 81.24C46.1827 81.24 48.0307 79.896 49.1107 77.592L47.9107 77.016C47.1187 78.864 45.6067 80.016 43.3747 80.016C40.5427 80.016 38.5747 78.096 38.3827 75.456H49.4467V74.856C49.4467 71.256 46.8067 68.76 43.3027 68.76C39.7267 68.76 37.0867 71.52 37.0867 75.072C37.0867 78.576 39.5107 81.24 43.3987 81.24ZM43.3027 69.984C45.9667 69.984 47.7667 71.688 48.0307 74.208H38.4307C38.8147 71.784 40.7827 69.984 43.3027 69.984ZM52.3563 81H53.7243V74.736C53.7243 71.856 55.0683 70.272 57.6123 70.272H58.7403V69H57.6123C55.7643 69 54.3963 69.888 53.7003 71.328V69H52.3563V81ZM69.3176 86.544H70.7816L78.5336 69H77.0456L72.8216 78.768L68.2856 69H66.7736L72.0776 80.328L69.3176 86.544ZM86.0293 81.24C89.4853 81.24 92.2693 78.504 92.2693 75C92.2693 71.496 89.4853 68.76 86.0293 68.76C82.5733 68.76 79.8133 71.496 79.8133 75C79.8133 78.504 82.5733 81.24 86.0293 81.24ZM86.0293 79.992C83.3173 79.992 81.1813 77.76 81.1813 75C81.1813 72.24 83.3173 70.008 86.0293 70.008C88.7413 70.008 90.8773 72.24 90.8773 75C90.8773 77.76 88.7413 79.992 86.0293 79.992ZM100.481 81.24C102.449 81.24 104.057 80.256 104.873 78.792V81H106.217V69H104.849V75.696C104.849 78.144 103.001 79.992 100.601 79.992C97.9847 79.992 96.4967 78.288 96.4967 75.72V69H95.1287V75.72C95.1287 79.152 97.0967 81.24 100.481 81.24ZM109.778 81H111.146V74.736C111.146 71.856 112.49 70.272 115.034 70.272H116.162V69H115.034C113.186 69 111.818 69.888 111.122 71.328V69H109.778V81ZM130.867 81.24C133.651 81.24 135.499 79.896 136.579 77.592L135.379 77.016C134.587 78.864 133.075 80.016 130.843 80.016C128.011 80.016 126.043 78.096 125.851 75.456H136.915V74.856C136.915 71.256 134.275 68.76 130.771 68.76C127.195 68.76 124.555 71.52 124.555 75.072C124.555 78.576 126.979 81.24 130.867 81.24ZM130.771 69.984C133.435 69.984 135.235 71.688 135.499 74.208H125.899C126.283 71.784 128.251 69.984 130.771 69.984ZM139.825 81H141.169V74.208C141.169 71.64 142.921 69.984 145.273 69.984C147.649 69.984 149.137 71.472 149.137 73.728V81H150.505V73.992C150.505 71.52 152.281 69.984 154.537 69.984C157.009 69.984 158.545 71.64 158.545 73.944V81H159.913V74.04C159.913 70.896 157.921 68.76 154.561 68.76C152.353 68.76 150.625 69.912 149.905 71.592C149.281 69.888 147.721 68.76 145.369 68.76C143.401 68.76 141.913 69.696 141.145 71.112V69H139.825V81ZM168.927 81.24C170.751 81.24 172.791 80.256 173.775 78.504V81H175.143V69H173.775V71.496C172.791 69.744 170.751 68.76 168.927 68.76C165.399 68.76 162.759 71.568 162.759 75C162.759 78.432 165.423 81.24 168.927 81.24ZM168.999 79.992C166.287 79.992 164.127 77.76 164.127 75C164.127 72.24 166.287 70.008 168.999 70.008C171.783 70.008 173.919 72.264 173.919 75C173.919 77.76 171.783 79.992 168.999 79.992ZM178.544 81H179.912V69H178.544V81ZM178.544 66.96H179.912V63.48H178.544V66.96ZM183.513 81H184.905V63.48H183.513V81ZM200.626 81.24C204.13 81.24 206.818 78.432 206.818 75C206.818 71.568 204.178 68.76 200.626 68.76C198.802 68.76 196.786 69.744 195.802 71.472V63.48H194.458V81H195.778V78.504C196.762 80.256 198.778 81.24 200.626 81.24ZM200.578 79.992C197.77 79.992 195.634 77.76 195.634 75C195.634 72.264 197.77 70.008 200.578 70.008C203.29 70.008 205.426 72.24 205.426 75C205.426 77.76 203.29 79.992 200.578 79.992ZM215.617 81.24C218.401 81.24 220.249 79.896 221.329 77.592L220.129 77.016C219.337 78.864 217.825 80.016 215.593 80.016C212.761 80.016 210.793 78.096 210.601 75.456H221.665V74.856C221.665 71.256 219.025 68.76 215.521 68.76C211.945 68.76 209.305 71.52 209.305 75.072C209.305 78.576 211.729 81.24 215.617 81.24ZM215.521 69.984C218.185 69.984 219.985 71.688 220.249 74.208H210.649C211.033 71.784 213.001 69.984 215.521 69.984ZM224.599 81H225.991V63.48H224.599V81ZM235.139 81.24C238.595 81.24 241.379 78.504 241.379 75C241.379 71.496 238.595 68.76 235.139 68.76C231.683 68.76 228.923 71.496 228.923 75C228.923 78.504 231.683 81.24 235.139 81.24ZM235.139 79.992C232.427 79.992 230.291 77.76 230.291 75C230.291 72.24 232.427 70.008 235.139 70.008C237.851 70.008 239.987 72.24 239.987 75C239.987 77.76 237.851 79.992 235.139 79.992ZM247.054 81H248.374L252.334 70.944L256.27 81H257.566L261.574 69H260.134L256.87 79.008L253.006 69H251.71L247.798 78.984L244.63 69H243.166L247.054 81ZM269.366 70.224H271.43V76.632C271.43 80.088 272.342 81 275.678 81H275.87V79.728C273.35 79.728 272.822 79.272 272.822 76.608V70.224H275.87V69H272.822V65.376L271.43 66.192V69H269.366V70.224ZM283.771 81.24C287.227 81.24 290.011 78.504 290.011 75C290.011 71.496 287.227 68.76 283.771 68.76C280.315 68.76 277.555 71.496 277.555 75C277.555 78.504 280.315 81.24 283.771 81.24ZM283.771 79.992C281.059 79.992 278.923 77.76 278.923 75C278.923 72.24 281.059 70.008 283.771 70.008C286.483 70.008 288.619 72.24 288.619 75C288.619 77.76 286.483 79.992 283.771 79.992ZM304.677 81.24C306.525 81.24 308.565 80.256 309.549 78.456V80.808C309.549 83.688 307.773 85.608 304.965 85.608C302.685 85.608 301.341 84.624 300.693 83.064L299.349 83.52C300.213 85.536 302.013 86.832 304.965 86.832C308.541 86.832 310.893 84.456 310.893 80.76V69H309.525V71.496C308.541 69.744 306.501 68.76 304.677 68.76C301.149 68.76 298.509 71.568 298.509 75C298.509 78.432 301.173 81.24 304.677 81.24ZM304.749 79.992C302.037 79.992 299.877 77.76 299.877 75C299.877 72.24 302.037 70.008 304.749 70.008C307.533 70.008 309.669 72.264 309.669 75C309.669 77.76 307.533 79.992 304.749 79.992ZM320.102 81.24C322.886 81.24 324.734 79.896 325.814 77.592L324.614 77.016C323.822 78.864 322.31 80.016 320.078 80.016C317.246 80.016 315.278 78.096 315.086 75.456H326.15V74.856C326.15 71.256 323.51 68.76 320.006 68.76C316.43 68.76 313.79 71.52 313.79 75.072C313.79 78.576 316.214 81.24 320.102 81.24ZM320.006 69.984C322.67 69.984 324.47 71.688 324.734 74.208H315.134C315.518 71.784 317.486 69.984 320.006 69.984ZM327.772 70.224H329.836V76.632C329.836 80.088 330.748 81 334.084 81H334.276V79.728C331.756 79.728 331.228 79.272 331.228 76.608V70.224H334.276V69H331.228V65.376L329.836 66.192V69H327.772V70.224ZM348.881 81.24C352.337 81.24 355.121 78.504 355.121 75C355.121 71.496 352.337 68.76 348.881 68.76C345.425 68.76 342.665 71.496 342.665 75C342.665 78.504 345.425 81.24 348.881 81.24ZM348.881 79.992C346.169 79.992 344.033 77.76 344.033 75C344.033 72.24 346.169 70.008 348.881 70.008C351.593 70.008 353.729 72.24 353.729 75C353.729 77.76 351.593 79.992 348.881 79.992ZM363.332 81.24C365.3 81.24 366.908 80.256 367.724 78.792V81H369.068V69H367.7V75.696C367.7 78.144 365.852 79.992 363.452 79.992C360.836 79.992 359.348 78.288 359.348 75.72V69H357.98V75.72C357.98 79.152 359.948 81.24 363.332 81.24ZM372.63 81H373.998V74.736C373.998 71.856 375.342 70.272 377.886 70.272H379.014V69H377.886C376.038 69 374.67 69.888 373.974 71.328V69H372.63V81ZM393.575 81.24C395.399 81.24 397.439 80.256 398.423 78.504V81H399.743V63.48H398.423V71.496C397.439 69.744 395.399 68.76 393.575 68.76C390.047 68.76 387.407 71.568 387.407 75C387.407 78.432 390.071 81.24 393.575 81.24ZM393.647 79.992C390.935 79.992 388.775 77.76 388.775 75C388.775 72.24 390.935 70.008 393.647 70.008C396.431 70.008 398.567 72.264 398.567 75C398.567 77.76 396.431 79.992 393.647 79.992ZM408.833 81.24C410.657 81.24 412.697 80.256 413.681 78.504V81H415.049V69H413.681V71.496C412.697 69.744 410.657 68.76 408.833 68.76C405.305 68.76 402.665 71.568 402.665 75C402.665 78.432 405.329 81.24 408.833 81.24ZM408.905 79.992C406.193 79.992 404.033 77.76 404.033 75C404.033 72.24 406.193 70.008 408.905 70.008C411.689 70.008 413.825 72.264 413.825 75C413.825 77.76 411.689 79.992 408.905 79.992ZM418.45 81H419.818V69H418.45V81ZM418.45 66.96H419.818V63.48H418.45V66.96ZM423.419 81H424.811V63.48H423.419V81ZM429.927 86.544H431.391L439.143 69H437.655L433.431 78.768L428.895 69H427.383L432.687 80.328L429.927 86.544ZM453.459 81.24C456.915 81.24 459.699 78.504 459.699 75C459.699 71.496 456.915 68.76 453.459 68.76C450.003 68.76 447.243 71.496 447.243 75C447.243 78.504 450.003 81.24 453.459 81.24ZM453.459 79.992C450.747 79.992 448.611 77.76 448.611 75C448.611 72.24 450.747 70.008 453.459 70.008C456.171 70.008 458.307 72.24 458.307 75C458.307 77.76 456.171 79.992 453.459 79.992ZM461.343 70.224H463.407V81H464.775V70.224H467.847V69H464.775V67.872C464.775 65.208 465.231 64.752 467.847 64.752V63.48H467.727C464.367 63.48 463.407 64.392 463.407 67.848V69H461.343V70.224ZM469.64 70.224H471.704V81H473.072V70.224H476.144V69H473.072V67.872C473.072 65.208 473.528 64.752 476.144 64.752V63.48H476.024C472.664 63.48 471.704 64.392 471.704 67.848V69H469.64V70.224ZM483.696 81.24C486.48 81.24 488.328 79.896 489.408 77.592L488.208 77.016C487.416 78.864 485.904 80.016 483.672 80.016C480.84 80.016 478.872 78.096 478.68 75.456H489.744V74.856C489.744 71.256 487.104 68.76 483.6 68.76C480.024 68.76 477.384 71.52 477.384 75.072C477.384 78.576 479.808 81.24 483.696 81.24ZM483.6 69.984C486.264 69.984 488.064 71.688 488.328 74.208H478.728C479.112 71.784 481.08 69.984 483.6 69.984ZM492.653 81H494.021V74.736C494.021 71.856 495.365 70.272 497.909 70.272H499.037V69H497.909C496.061 69 494.693 69.888 493.997 71.328V69H492.653V81ZM505.54 81.24C508.684 81.24 510.028 79.272 510.028 77.64C510.028 75.336 507.94 74.736 505.996 74.256C504.268 73.824 502.66 73.464 502.66 72.048C502.66 70.848 503.692 69.912 505.516 69.912C506.908 69.912 507.964 70.416 508.78 71.352L509.812 70.512C508.828 69.384 507.244 68.736 505.516 68.736C502.924 68.736 501.316 70.296 501.316 72.072C501.316 74.304 503.332 74.928 505.252 75.408C507.004 75.84 508.684 76.152 508.684 77.64C508.684 78.912 507.652 80.04 505.588 80.04C503.956 80.04 502.636 79.224 501.82 78.12L500.74 78.984C501.748 80.328 503.476 81.24 505.54 81.24ZM524.684 81.24C526.508 81.24 528.548 80.256 529.532 78.504V81H530.9V69H529.532V71.496C528.548 69.744 526.508 68.76 524.684 68.76C521.156 68.76 518.516 71.568 518.516 75C518.516 78.432 521.18 81.24 524.684 81.24ZM524.756 79.992C522.044 79.992 519.884 77.76 519.884 75C519.884 72.24 522.044 70.008 524.756 70.008C527.54 70.008 529.676 72.264 529.676 75C529.676 77.76 527.54 79.992 524.756 79.992ZM534.466 81H535.81V74.304C535.81 71.856 537.658 70.008 540.082 70.008C542.698 70.008 544.186 71.712 544.186 74.28V81H545.554V74.28C545.554 70.848 543.466 68.76 540.25 68.76C538.21 68.76 536.602 69.792 535.786 71.256V69H534.466V81ZM554.567 81.24C556.391 81.24 558.431 80.256 559.415 78.504V81H560.735V63.48H559.415V71.496C558.431 69.744 556.391 68.76 554.567 68.76C551.039 68.76 548.399 71.568 548.399 75C548.399 78.432 551.063 81.24 554.567 81.24ZM554.639 79.992C551.927 79.992 549.767 77.76 549.767 75C549.767 72.24 551.927 70.008 554.639 70.008C557.423 70.008 559.559 72.264 559.559 75C559.559 77.76 557.423 79.992 554.639 79.992ZM570.255 81H571.599V74.304C571.599 71.856 573.447 70.008 575.871 70.008C578.487 70.008 579.975 71.712 579.975 74.28V81H581.343V74.28C581.343 70.848 579.255 68.76 576.039 68.76C573.999 68.76 572.391 69.792 571.575 71.256V69H570.255V81ZM590.5 81.24C593.284 81.24 595.132 79.896 596.212 77.592L595.012 77.016C594.22 78.864 592.708 80.016 590.476 80.016C587.644 80.016 585.676 78.096 585.484 75.456H596.548V74.856C596.548 71.256 593.908 68.76 590.404 68.76C586.828 68.76 584.188 71.52 584.188 75.072C584.188 78.576 586.612 81.24 590.5 81.24ZM590.404 69.984C593.068 69.984 594.868 71.688 595.132 74.208H585.532C585.916 71.784 587.884 69.984 590.404 69.984ZM602.226 81H603.546L607.506 70.944L611.442 81H612.738L616.746 69H615.306L612.042 79.008L608.178 69H606.882L602.97 78.984L599.802 69H598.338L602.226 81ZM623.196 81.24C626.34 81.24 627.684 79.272 627.684 77.64C627.684 75.336 625.596 74.736 623.652 74.256C621.924 73.824 620.316 73.464 620.316 72.048C620.316 70.848 621.348 69.912 623.172 69.912C624.564 69.912 625.62 70.416 626.436 71.352L627.468 70.512C626.484 69.384 624.9 68.736 623.172 68.736C620.58 68.736 618.972 70.296 618.972 72.072C618.972 74.304 620.988 74.928 622.908 75.408C624.66 75.84 626.34 76.152 626.34 77.64C626.34 78.912 625.308 80.04 623.244 80.04C621.612 80.04 620.292 79.224 619.476 78.12L618.396 78.984C619.404 80.328 621.132 81.24 623.196 81.24Z" fill="#3B433E"/>
<rect x="57.75" y="150.75" width="328.5" height="58.5" rx="29.25" fill="white" stroke="#F5F5F5" stroke-width="1.5"/>
<path d="M78.35 185H86.396V184.01H79.394V178.898H86.396V177.926H79.394V172.85H86.396V171.86H78.35V185ZM88.7721 185H89.7801V179.978C89.7801 178.142 91.1661 176.756 92.9841 176.756C94.9461 176.756 96.0621 178.034 96.0621 179.96V185H97.0881V179.96C97.0881 177.386 95.5221 175.82 93.1101 175.82C91.5801 175.82 90.3741 176.594 89.7621 177.692V176H88.7721V185ZM98.5819 176.918H100.13V181.724C100.13 184.316 100.814 185 103.316 185H103.46V184.046C101.57 184.046 101.174 183.704 101.174 181.706V176.918H103.46V176H101.174V173.282L100.13 173.894V176H98.5819V176.918ZM109.458 185.18C111.546 185.18 112.932 184.172 113.742 182.444L112.842 182.012C112.248 183.398 111.114 184.262 109.44 184.262C107.316 184.262 105.84 182.822 105.696 180.842H113.994V180.392C113.994 177.692 112.014 175.82 109.386 175.82C106.704 175.82 104.724 177.89 104.724 180.554C104.724 183.182 106.542 185.18 109.458 185.18ZM109.386 176.738C111.384 176.738 112.734 178.016 112.932 179.906H105.732C106.02 178.088 107.496 176.738 109.386 176.738ZM116.176 185H117.202V180.302C117.202 178.142 118.21 176.954 120.118 176.954H120.964V176H120.118C118.732 176 117.706 176.666 117.184 177.746V176H116.176V185ZM128.897 189.158H129.995L135.809 176H134.693L131.525 183.326L128.123 176H126.989L130.967 184.496L128.897 189.158ZM141.431 185.18C144.023 185.18 146.111 183.128 146.111 180.5C146.111 177.872 144.023 175.82 141.431 175.82C138.839 175.82 136.769 177.872 136.769 180.5C136.769 183.128 138.839 185.18 141.431 185.18ZM141.431 184.244C139.397 184.244 137.795 182.57 137.795 180.5C137.795 178.43 139.397 176.756 141.431 176.756C143.465 176.756 145.067 178.43 145.067 180.5C145.067 182.57 143.465 184.244 141.431 184.244ZM152.27 185.18C153.746 185.18 154.952 184.442 155.564 183.344V185H156.572V176H155.546V181.022C155.546 182.858 154.16 184.244 152.36 184.244C150.398 184.244 149.282 182.966 149.282 181.04V176H148.256V181.04C148.256 183.614 149.732 185.18 152.27 185.18ZM159.243 185H160.269V180.302C160.269 178.142 161.277 176.954 163.185 176.954H164.031V176H163.185C161.799 176 160.773 176.666 160.251 177.746V176H159.243V185ZM175.06 185.18C177.148 185.18 178.534 184.172 179.344 182.444L178.444 182.012C177.85 183.398 176.716 184.262 175.042 184.262C172.918 184.262 171.442 182.822 171.298 180.842H179.596V180.392C179.596 177.692 177.616 175.82 174.988 175.82C172.306 175.82 170.326 177.89 170.326 180.554C170.326 183.182 172.144 185.18 175.06 185.18ZM174.988 176.738C176.986 176.738 178.336 178.016 178.534 179.906H171.334C171.622 178.088 173.098 176.738 174.988 176.738ZM181.778 185H182.786V179.906C182.786 177.98 184.1 176.738 185.864 176.738C187.646 176.738 188.762 177.854 188.762 179.546V185H189.788V179.744C189.788 177.89 191.12 176.738 192.812 176.738C194.666 176.738 195.818 177.98 195.818 179.708V185H196.844V179.78C196.844 177.422 195.35 175.82 192.83 175.82C191.174 175.82 189.878 176.684 189.338 177.944C188.87 176.666 187.7 175.82 185.936 175.82C184.46 175.82 183.344 176.522 182.768 177.584V176H181.778V185ZM203.604 185.18C204.972 185.18 206.502 184.442 207.24 183.128V185H208.266V176H207.24V177.872C206.502 176.558 204.972 175.82 203.604 175.82C200.958 175.82 198.978 177.926 198.978 180.5C198.978 183.074 200.976 185.18 203.604 185.18ZM203.658 184.244C201.624 184.244 200.004 182.57 200.004 180.5C200.004 178.43 201.624 176.756 203.658 176.756C205.746 176.756 207.348 178.448 207.348 180.5C207.348 182.57 205.746 184.244 203.658 184.244ZM210.817 185H211.843V176H210.817V185ZM210.817 174.47H211.843V171.86H210.817V174.47ZM214.544 185H215.588V171.86H214.544V185ZM218.075 185H219.119V182.534H218.075V185Z" fill="#8A8A8A"/>
<rect x="402" y="150" width="170" height="60" rx="30" fill="url(#paint0_linear_711_39)"/>
<path d="M446.934 173.88C445.634 172.66 444.074 172.06 442.274 172.06C440.334 172.06 438.674 172.74 437.334 174.12C435.994 175.5 435.314 177.16 435.314 179.14C435.314 181.1 435.994 182.76 437.334 184.14C438.674 185.52 440.334 186.2 442.274 186.2C446.334 186.2 448.794 183.8 448.794 179.08H442.754V180.7H446.674C446.614 181.84 446.194 182.74 445.374 183.42C444.554 184.08 443.534 184.42 442.274 184.42C440.854 184.42 439.634 183.9 438.654 182.88C437.674 181.86 437.174 180.6 437.174 179.14C437.174 177.68 437.674 176.42 438.654 175.4C439.634 174.36 440.854 173.84 442.274 173.84C443.534 173.84 444.634 174.26 445.594 175.12L446.934 173.88ZM452.171 180.6C452.391 179.06 453.551 178.1 455.131 178.1C456.651 178.1 457.751 179.06 457.971 180.6H452.171ZM459.771 181.3C459.771 179.84 459.331 178.68 458.451 177.8C457.591 176.9 456.471 176.46 455.131 176.46C453.771 176.46 452.631 176.9 451.711 177.8C450.811 178.68 450.351 179.84 450.351 181.3C450.351 182.76 450.811 183.94 451.711 184.84C452.631 185.74 453.771 186.2 455.131 186.2C456.991 186.2 458.651 185.32 459.431 183.72L458.671 183.44C458.311 183.3 458.051 183.18 457.871 183.12C457.371 184.02 456.331 184.56 455.191 184.56C453.591 184.56 452.391 183.56 452.171 182.02H459.751C459.771 181.88 459.771 181.64 459.771 181.3ZM464.604 173.14H462.784V176.66H461.104V178.2H462.784V186H464.604V178.2H466.584V176.66H464.604V173.14ZM472.991 182.02C472.991 183.14 473.451 184.12 474.371 184.96C475.291 185.78 476.431 186.2 477.811 186.2C479.111 186.2 480.171 185.86 480.991 185.18C481.811 184.5 482.291 183.64 482.411 182.6C482.671 180.44 481.351 178.94 478.731 178.28L476.931 177.84C475.631 177.52 474.971 176.88 474.971 175.92C474.971 175.3 475.231 174.8 475.731 174.42C476.251 174.04 476.851 173.84 477.551 173.84C479.071 173.84 480.151 174.74 480.151 176.1H482.011C482.011 174.88 481.591 173.92 480.751 173.18C479.911 172.44 478.851 172.06 477.571 172.06C476.351 172.06 475.311 172.42 474.431 173.16C473.551 173.88 473.111 174.8 473.111 175.94C473.111 177.76 474.231 178.96 476.471 179.54L478.251 179.98C479.691 180.3 480.691 181.08 480.591 182.44C480.411 183.58 479.471 184.46 477.811 184.46C476.971 184.46 476.271 184.22 475.711 183.72C475.151 183.22 474.871 182.64 474.851 182.02H472.991ZM487.358 173.14H485.538V176.66H483.858V178.2H485.538V186H487.358V178.2H489.338V176.66H487.358V173.14ZM500.464 186V176.66H498.664V178.06C498.084 177.04 496.744 176.46 495.384 176.46C494.064 176.46 492.944 176.9 492.024 177.8C491.104 178.7 490.644 179.86 490.644 181.32C490.644 182.76 491.104 183.94 492.024 184.84C492.944 185.74 494.064 186.2 495.384 186.2C496.744 186.2 498.044 185.6 498.664 184.56V186H500.464ZM498.644 181.3C498.644 182.26 498.344 183.02 497.744 183.58C497.144 184.14 496.404 184.42 495.544 184.42C494.684 184.42 493.964 184.12 493.384 183.54C492.804 182.96 492.504 182.2 492.504 181.3C492.504 180.4 492.784 179.66 493.364 179.1C493.944 178.52 494.684 178.24 495.544 178.24C496.364 178.24 497.084 178.52 497.704 179.06C498.324 179.6 498.644 180.36 498.644 181.3ZM505.33 182.6C505.33 179.96 506.19 178.2 507.89 178.2C508.37 178.2 508.83 178.3 509.27 178.52L509.55 176.82C509.21 176.58 508.67 176.46 507.93 176.46C506.65 176.46 505.79 177.22 505.33 178.76V176.66H503.51V186H505.33V182.6ZM513.921 173.14H512.101V176.66H510.421V178.2H512.101V186H513.921V178.2H515.901V176.66H513.921V173.14ZM519.027 180.6C519.247 179.06 520.407 178.1 521.987 178.1C523.507 178.1 524.607 179.06 524.827 180.6H519.027ZM526.627 181.3C526.627 179.84 526.187 178.68 525.307 177.8C524.447 176.9 523.327 176.46 521.987 176.46C520.627 176.46 519.487 176.9 518.567 177.8C517.667 178.68 517.207 179.84 517.207 181.3C517.207 182.76 517.667 183.94 518.567 184.84C519.487 185.74 520.627 186.2 521.987 186.2C523.847 186.2 525.507 185.32 526.287 183.72L525.527 183.44C525.167 183.3 524.907 183.18 524.727 183.12C524.227 184.02 523.187 184.56 522.047 184.56C520.447 184.56 519.247 183.56 519.027 182.02H526.607C526.627 181.88 526.627 181.64 526.627 181.3ZM538.14 186V171.58H536.32V178.06C535.7 177.02 534.44 176.46 533.02 176.46C531.7 176.46 530.58 176.9 529.68 177.8C528.78 178.7 528.32 179.86 528.32 181.32C528.32 182.76 528.78 183.94 529.68 184.84C530.6 185.74 531.72 186.2 533.04 186.2C534.4 186.2 535.7 185.6 536.32 184.56V186H538.14ZM533.2 178.24C534.02 178.24 534.74 178.52 535.36 179.06C535.98 179.6 536.3 180.36 536.3 181.3C536.3 182.24 536 183 535.38 183.58C534.78 184.14 534.06 184.42 533.2 184.42C532.34 184.42 531.62 184.12 531.04 183.54C530.46 182.96 530.18 182.2 530.18 181.3C530.18 180.4 530.46 179.66 531.04 179.1C531.62 178.52 532.34 178.24 533.2 178.24Z" fill="white"/>
<defs>
<linearGradient id="paint0_linear_711_39" x1="487" y1="150" x2="487" y2="210" gradientUnits="userSpaceOnUse">
<stop stop-color="#64BB47"/>
<stop offset="1" stop-color="#2C9553"/>
</linearGradient>
</defs>
</svg>
