<svg width="1440" height="420" viewBox="0 0 1440 420" fill="none" xmlns="http://www.w3.org/2000/svg">
<rect width="1440" height="420" fill="#FCFCFC"/>
<rect y="360" width="1440" height="60" fill="url(#paint0_linear_711_12)"/>
<path d="M550.034 394.16C553.346 394.16 556.034 391.472 556.034 388.16C556.034 384.848 553.346 382.16 550.034 382.16C546.722 382.16 544.034 384.848 544.034 388.16C544.034 391.472 546.722 394.16 550.034 394.16ZM550.034 393.056C547.298 393.056 545.234 390.848 545.234 388.16C545.234 385.472 547.298 383.264 550.034 383.264C552.77 383.264 554.834 385.472 554.834 388.16C554.834 390.848 552.77 393.056 550.034 393.056ZM550.098 391.344C551.346 391.344 552.418 390.624 552.93 389.632L551.858 389.04C551.586 389.696 550.914 390.192 550.082 390.192C548.978 390.192 548.066 389.296 548.066 388.16C548.066 387.04 548.978 386.128 550.082 386.128C550.882 386.128 551.538 386.608 551.826 387.216L552.882 386.576C552.37 385.648 551.314 384.976 550.098 384.976C548.29 384.976 546.898 386.4 546.898 388.16C546.898 389.92 548.274 391.344 550.098 391.344ZM567.597 394.16C570.029 394.16 571.949 392.848 572.957 390.928L571.853 390.352C571.085 391.904 569.629 392.976 567.597 392.976C564.909 392.976 562.877 390.8 562.877 388.16C562.877 385.52 564.909 383.344 567.597 383.344C569.405 383.344 570.925 384.336 571.725 385.792L572.797 385.168C571.757 383.376 569.821 382.16 567.597 382.16C564.285 382.16 561.597 384.848 561.597 388.16C561.597 391.472 564.285 394.16 567.597 394.16ZM578.537 394.16C580.841 394.16 582.697 392.352 582.697 390C582.697 387.648 580.841 385.84 578.537 385.84C576.233 385.84 574.393 387.648 574.393 390C574.393 392.352 576.233 394.16 578.537 394.16ZM578.537 393.04C576.905 393.04 575.641 391.68 575.641 390C575.641 388.32 576.905 386.96 578.537 386.96C580.169 386.96 581.449 388.32 581.449 390C581.449 391.68 580.169 393.04 578.537 393.04ZM588.669 394.16C591.021 394.16 592.765 392.288 592.765 390C592.765 387.712 591.053 385.84 588.669 385.84C587.629 385.84 586.397 386.368 585.725 387.312V386H584.541V397.68H585.741V392.784C586.397 393.712 587.549 394.16 588.669 394.16ZM588.605 393.04C586.893 393.04 585.613 391.68 585.613 390C585.613 388.336 586.893 386.96 588.605 386.96C590.237 386.96 591.517 388.32 591.517 390C591.517 391.68 590.237 393.04 588.605 393.04ZM595.175 397.696H596.487L601.527 386H600.183L597.639 392.112L594.887 386H593.527L596.983 393.536L595.175 397.696ZM603.072 394H604.32V389.856C604.32 388 604.912 387.152 606.528 387.152H607.52V386H606.528C605.504 386 604.736 386.416 604.304 387.152V386H603.072V394ZM609.291 394H610.539V386H609.291V394ZM609.291 384.608H610.539V382.32H609.291V384.608ZM616.473 394.16C617.513 394.16 618.761 393.632 619.433 392.672V393.888C619.433 395.6 618.441 396.816 616.697 396.816C615.337 396.816 614.537 396.208 614.153 395.296L612.937 395.696C613.513 397.04 614.745 397.904 616.697 397.904C619.113 397.904 620.649 396.288 620.649 393.856V386H619.417V387.312C618.729 386.368 617.497 385.84 616.473 385.84C614.089 385.84 612.377 387.712 612.377 390C612.377 392.288 614.121 394.16 616.473 394.16ZM616.537 393.04C614.905 393.04 613.625 391.68 613.625 390C613.625 388.32 614.905 386.96 616.537 386.96C618.249 386.96 619.529 388.336 619.529 390C619.529 391.68 618.249 393.04 616.537 393.04ZM622.822 394H624.054V389.568C624.054 388.112 625.126 386.96 626.582 386.96C628.182 386.96 628.982 388 628.982 389.552V394H630.23V389.552C630.23 387.248 628.902 385.84 626.758 385.84C625.558 385.84 624.598 386.368 624.038 387.168V382.32H622.822V394ZM631.419 387.12H632.795V390.944C632.795 393.328 633.419 394 635.755 394H635.931V392.832C634.347 392.832 634.043 392.56 634.043 390.928V387.12H635.931V386H634.043V383.424L632.795 384.112V386H631.419V387.12ZM641.648 394H649.232V392.8H642.96V392.768C642.96 391.408 644.336 390.448 645.776 389.44C647.312 388.352 649.008 387.2 649.008 385.408C649.008 383.632 647.552 382.16 645.328 382.16C643.664 382.16 642.256 383.12 641.6 384.416L642.688 384.992C643.216 383.984 644.144 383.28 645.344 383.28C646.832 383.28 647.728 384.16 647.728 385.392C647.728 386.672 646.256 387.6 644.832 388.624C643.28 389.728 641.648 390.928 641.648 392.768V394ZM654.782 393.024C653.134 393.024 652.334 392.048 652.334 390.448V385.968C652.334 384.368 653.166 383.296 654.814 383.296C656.414 383.296 657.262 384.272 657.262 385.968V390.464C657.262 392.016 656.43 393.024 654.782 393.024ZM654.798 394.16C657.166 394.16 658.51 392.752 658.51 390.464V385.968C658.51 383.824 657.086 382.16 654.798 382.16C652.574 382.16 651.086 383.776 651.086 385.968V390.464C651.086 392.704 652.366 394.16 654.798 394.16ZM660.46 394H668.044V392.8H661.772V392.768C661.772 391.408 663.148 390.448 664.588 389.44C666.124 388.352 667.82 387.2 667.82 385.408C667.82 383.632 666.364 382.16 664.14 382.16C662.476 382.16 661.068 383.12 660.412 384.416L661.5 384.992C662.028 383.984 662.956 383.28 664.156 383.28C665.644 383.28 666.54 384.16 666.54 385.392C666.54 386.672 665.068 387.6 663.644 388.624C662.092 389.728 660.46 390.928 660.46 392.768V394ZM673.594 393.024C671.946 393.024 671.146 392.048 671.146 390.448V385.968C671.146 384.368 671.978 383.296 673.626 383.296C675.226 383.296 676.074 384.272 676.074 385.968V390.464C676.074 392.016 675.242 393.024 673.594 393.024ZM673.61 394.16C675.978 394.16 677.322 392.752 677.322 390.464V385.968C677.322 383.824 675.898 382.16 673.61 382.16C671.386 382.16 669.898 383.776 669.898 385.968V390.464C669.898 392.704 671.178 394.16 673.61 394.16ZM687.529 394.16C689.881 394.16 691.625 392.288 691.625 390C691.625 387.712 689.913 385.84 687.529 385.84C686.489 385.84 685.273 386.352 684.601 387.296V382.32H683.401V394H684.585V392.688C685.257 393.648 686.489 394.16 687.529 394.16ZM687.465 393.04C685.753 393.04 684.473 391.68 684.473 390C684.473 388.336 685.753 386.96 687.465 386.96C689.097 386.96 690.377 388.32 690.377 390C690.377 391.68 689.097 393.04 687.465 393.04ZM694.034 397.696H695.346L700.386 386H699.042L696.498 392.112L693.746 386H692.386L695.842 393.536L694.034 397.696ZM709.435 394.16C710.587 394.16 711.531 393.632 712.091 392.816V394H713.307V386H712.075V390.432C712.075 391.888 711.003 393.04 709.547 393.04C707.947 393.04 707.147 392 707.147 390.448V386H705.899V390.448C705.899 392.752 707.099 394.16 709.435 394.16ZM715.447 394H716.695V386H715.447V394ZM715.447 384.608H716.695V382.32H715.447V384.608ZM718.758 394H720.006V391.808H718.758V394ZM725.864 394.16C726.888 394.16 728.12 393.648 728.808 392.688V394H729.992V382.32H728.792V387.296C728.104 386.352 726.888 385.84 725.864 385.84C723.48 385.84 721.768 387.712 721.768 390C721.768 392.288 723.512 394.16 725.864 394.16ZM725.928 393.04C724.296 393.04 723.016 391.68 723.016 390C723.016 388.32 724.296 386.96 725.928 386.96C727.64 386.96 728.92 388.336 728.92 390C728.92 391.68 727.64 393.04 725.928 393.04ZM736.054 394.16C737.846 394.16 739.094 393.328 739.83 391.936L738.758 391.408C738.262 392.384 737.35 393.056 736.054 393.056C734.454 393.056 733.206 391.984 733.046 390.4H740.086V389.872C740.086 387.424 738.294 385.84 735.99 385.84C733.59 385.84 731.846 387.664 731.846 390.064C731.846 392.416 733.51 394.16 736.054 394.16ZM735.99 386.944C737.542 386.944 738.598 387.824 738.822 389.264H733.11C733.43 387.92 734.55 386.944 735.99 386.944ZM744.635 394.16C746.859 394.16 747.707 392.72 747.707 391.696C747.707 390.096 746.283 389.696 744.987 389.392C743.899 389.136 742.891 388.944 742.891 388.128C742.891 387.456 743.483 386.88 744.587 386.88C745.483 386.88 746.171 387.216 746.715 387.824L747.627 387.056C746.939 386.256 745.771 385.824 744.587 385.824C742.795 385.824 741.675 386.96 741.675 388.144C741.675 389.712 743.051 390.128 744.331 390.432C745.435 390.688 746.491 390.848 746.491 391.696C746.491 392.432 745.883 393.072 744.683 393.072C743.659 393.072 742.859 392.56 742.267 391.824L741.291 392.624C742.075 393.584 743.243 394.16 744.635 394.16ZM755.173 394H756.613L753.285 389.392L756.597 386H755.029L750.773 390.352V382.32H749.557V394H750.773V391.776L752.389 390.128L755.173 394ZM758.039 394H759.287V391.808H758.039V394ZM764.825 394H766.137L767.257 391.04H772.585L773.721 394H775.017L770.585 382.32H769.241L764.825 394ZM769.913 384L772.137 389.856H767.705L769.913 384ZM776.651 394H777.899V382.32H776.651V394ZM780.151 394H781.399V382.32H780.151V394ZM787.556 394H788.804V389.856C788.804 388 789.396 387.152 791.012 387.152H792.004V386H791.012C789.988 386 789.22 386.416 788.788 387.152V386H787.556V394ZM793.775 394H795.023V386H793.775V394ZM793.775 384.608H795.023V382.32H793.775V384.608ZM800.958 394.16C801.998 394.16 803.246 393.632 803.918 392.672V393.888C803.918 395.6 802.926 396.816 801.182 396.816C799.822 396.816 799.022 396.208 798.638 395.296L797.422 395.696C797.998 397.04 799.23 397.904 801.182 397.904C803.598 397.904 805.134 396.288 805.134 393.856V386H803.902V387.312C803.214 386.368 801.982 385.84 800.958 385.84C798.574 385.84 796.862 387.712 796.862 390C796.862 392.288 798.606 394.16 800.958 394.16ZM801.022 393.04C799.39 393.04 798.11 391.68 798.11 390C798.11 388.32 799.39 386.96 801.022 386.96C802.734 386.96 804.014 388.336 804.014 390C804.014 391.68 802.734 393.04 801.022 393.04ZM807.307 394H808.539V389.568C808.539 388.112 809.611 386.96 811.067 386.96C812.667 386.96 813.467 388 813.467 389.552V394H814.715V389.552C814.715 387.248 813.387 385.84 811.243 385.84C810.043 385.84 809.083 386.368 808.523 387.168V382.32H807.307V394ZM815.903 387.12H817.279V390.944C817.279 393.328 817.903 394 820.239 394H820.415V392.832C818.831 392.832 818.527 392.56 818.527 390.928V387.12H820.415V386H818.527V383.424L817.279 384.112V386H815.903V387.12ZM826.244 394H827.492V389.856C827.492 388 828.084 387.152 829.7 387.152H830.692V386H829.7C828.676 386 827.908 386.416 827.476 387.152V386H826.244V394ZM835.882 394.16C837.674 394.16 838.922 393.328 839.658 391.936L838.586 391.408C838.09 392.384 837.178 393.056 835.882 393.056C834.282 393.056 833.034 391.984 832.874 390.4H839.914V389.872C839.914 387.424 838.122 385.84 835.818 385.84C833.418 385.84 831.674 387.664 831.674 390.064C831.674 392.416 833.338 394.16 835.882 394.16ZM835.818 386.944C837.37 386.944 838.426 387.824 838.65 389.264H832.938C833.258 387.92 834.378 386.944 835.818 386.944ZM844.463 394.16C846.687 394.16 847.535 392.72 847.535 391.696C847.535 390.096 846.111 389.696 844.815 389.392C843.727 389.136 842.719 388.944 842.719 388.128C842.719 387.456 843.311 386.88 844.415 386.88C845.311 386.88 845.999 387.216 846.543 387.824L847.455 387.056C846.767 386.256 845.599 385.824 844.415 385.824C842.623 385.824 841.503 386.96 841.503 388.144C841.503 389.712 842.879 390.128 844.159 390.432C845.263 390.688 846.319 390.848 846.319 391.696C846.319 392.432 845.711 393.072 844.511 393.072C843.487 393.072 842.687 392.56 842.095 391.824L841.119 392.624C841.903 393.584 843.071 394.16 844.463 394.16ZM853.273 394.16C855.065 394.16 856.313 393.328 857.049 391.936L855.977 391.408C855.481 392.384 854.569 393.056 853.273 393.056C851.673 393.056 850.425 391.984 850.265 390.4H857.305V389.872C857.305 387.424 855.513 385.84 853.209 385.84C850.809 385.84 849.065 387.664 849.065 390.064C849.065 392.416 850.729 394.16 853.273 394.16ZM853.209 386.944C854.761 386.944 855.817 387.824 856.041 389.264H850.329C850.649 387.92 851.769 386.944 853.209 386.944ZM859.166 394H860.414V389.856C860.414 388 861.006 387.152 862.622 387.152H863.614V386H862.622C861.598 386 860.83 386.416 860.398 387.152V386H859.166V394ZM868.131 394H869.363L872.467 386H871.139L868.771 392.32L866.371 386H865.027L868.131 394ZM877.617 394.16C879.409 394.16 880.657 393.328 881.393 391.936L880.321 391.408C879.825 392.384 878.913 393.056 877.617 393.056C876.017 393.056 874.769 391.984 874.609 390.4H881.649V389.872C881.649 387.424 879.857 385.84 877.553 385.84C875.153 385.84 873.409 387.664 873.409 390.064C873.409 392.416 875.073 394.16 877.617 394.16ZM877.553 386.944C879.105 386.944 880.161 387.824 880.385 389.264H874.673C874.993 387.92 876.113 386.944 877.553 386.944ZM887.302 394.16C888.326 394.16 889.558 393.648 890.246 392.688V394H891.43V382.32H890.23V387.296C889.542 386.352 888.326 385.84 887.302 385.84C884.918 385.84 883.206 387.712 883.206 390C883.206 392.288 884.95 394.16 887.302 394.16ZM887.366 393.04C885.734 393.04 884.454 391.68 884.454 390C884.454 388.32 885.734 386.96 887.366 386.96C889.078 386.96 890.358 388.336 890.358 390C890.358 391.68 889.078 393.04 887.366 393.04ZM893.508 394H894.756V391.808H893.508V394Z" fill="white"/>
<path d="M182.8 203.16C186.112 203.16 188.8 200.472 188.8 197.16C188.8 193.848 186.112 191.16 182.8 191.16C179.488 191.16 176.8 193.848 176.8 197.16C176.8 200.472 179.488 203.16 182.8 203.16ZM182.8 201.976C180.112 201.976 178.08 199.8 178.08 197.16C178.08 194.52 180.112 192.344 182.8 192.344C185.488 192.344 187.52 194.52 187.52 197.16C187.52 199.8 185.488 201.976 182.8 201.976ZM190.822 203H192.054V198.568C192.054 197.112 193.126 195.96 194.582 195.96C196.182 195.96 196.982 197 196.982 198.552V203H198.23V198.552C198.23 196.248 196.902 194.84 194.758 194.84C193.558 194.84 192.598 195.368 192.038 196.184V195H190.822V203ZM203.778 196.12H205.154V203H206.402V196.12H208.306V195H206.402V194.392C206.402 192.76 206.61 192.456 208.306 192.456V191.32H208.194C205.842 191.32 205.154 191.992 205.154 194.376V195H203.778V196.12ZM213.318 203.16C215.622 203.16 217.478 201.352 217.478 199C217.478 196.648 215.622 194.84 213.318 194.84C211.014 194.84 209.174 196.648 209.174 199C209.174 201.352 211.014 203.16 213.318 203.16ZM213.318 202.04C211.686 202.04 210.422 200.68 210.422 199C210.422 197.32 211.686 195.96 213.318 195.96C214.95 195.96 216.23 197.32 216.23 199C216.23 200.68 214.95 202.04 213.318 202.04ZM219.322 203H220.57V198.856C220.57 197 221.162 196.152 222.778 196.152H223.77V195H222.778C221.754 195 220.986 195.416 220.554 196.152V195H219.322V203ZM225.541 203H226.773V198.488C226.773 196.888 227.813 195.944 229.221 195.944C230.565 195.944 231.461 196.792 231.461 198.072V203H232.693V198.344C232.693 196.84 233.733 195.944 235.045 195.944C236.485 195.944 237.381 196.888 237.381 198.216V203H238.629V198.296C238.629 196.248 237.365 194.84 235.061 194.84C233.717 194.84 232.677 195.496 232.165 196.472C231.717 195.512 230.757 194.84 229.317 194.84C228.181 194.84 227.285 195.32 226.757 196.088V195H225.541V203ZM244.664 203.16C246.456 203.16 247.704 202.328 248.44 200.936L247.368 200.408C246.872 201.384 245.96 202.056 244.664 202.056C243.064 202.056 241.816 200.984 241.656 199.4H248.696V198.872C248.696 196.424 246.904 194.84 244.6 194.84C242.2 194.84 240.456 196.664 240.456 199.064C240.456 201.416 242.12 203.16 244.664 203.16ZM244.6 195.944C246.152 195.944 247.208 196.824 247.432 198.264H241.72C242.039 196.92 243.16 195.944 244.6 195.944ZM254.348 203.16C255.372 203.16 256.604 202.648 257.292 201.688V203H258.476V191.32H257.276V196.296C256.588 195.352 255.372 194.84 254.348 194.84C251.964 194.84 250.252 196.712 250.252 199C250.252 201.288 251.996 203.16 254.348 203.16ZM254.412 202.04C252.78 202.04 251.5 200.68 251.5 199C251.5 197.32 252.78 195.96 254.412 195.96C256.124 195.96 257.404 197.336 257.404 199C257.404 200.68 256.124 202.04 254.412 202.04ZM264.635 203H265.867V198.488C265.867 196.888 266.907 195.944 268.315 195.944C269.659 195.944 270.555 196.792 270.555 198.072V203H271.786V198.344C271.786 196.84 272.827 195.944 274.139 195.944C275.579 195.944 276.475 196.888 276.475 198.216V203H277.723V198.296C277.723 196.248 276.459 194.84 274.155 194.84C272.811 194.84 271.771 195.496 271.259 196.472C270.811 195.512 269.851 194.84 268.411 194.84C267.275 194.84 266.379 195.32 265.851 196.088V195H264.635V203ZM283.757 203.16C285.549 203.16 286.797 202.328 287.533 200.936L286.461 200.408C285.965 201.384 285.053 202.056 283.757 202.056C282.157 202.056 280.909 200.984 280.749 199.4H287.789V198.872C287.789 196.424 285.997 194.84 283.693 194.84C281.293 194.84 279.549 196.664 279.549 199.064C279.549 201.416 281.213 203.16 283.757 203.16ZM283.693 195.944C285.245 195.944 286.301 196.824 286.525 198.264H280.813C281.133 196.92 282.253 195.944 283.693 195.944ZM289.65 203H290.898V198.856C290.898 197 291.49 196.152 293.106 196.152H294.098V195H293.106C292.082 195 291.314 195.416 290.882 196.152V195H289.65V203ZM295.869 203H297.117V195H295.869V203ZM295.869 193.608H297.117V191.32H295.869V193.608ZM298.732 196.12H300.108V199.944C300.108 202.328 300.732 203 303.068 203H303.244V201.832C301.66 201.832 301.356 201.56 301.356 199.928V196.12H303.244V195H301.356V192.424L300.108 193.112V195H298.732V196.12ZM307.916 203.16C310.14 203.16 310.988 201.72 310.988 200.696C310.988 199.096 309.564 198.696 308.268 198.392C307.18 198.136 306.172 197.944 306.172 197.128C306.172 196.456 306.764 195.88 307.868 195.88C308.764 195.88 309.452 196.216 309.996 196.824L310.908 196.056C310.22 195.256 309.052 194.824 307.868 194.824C306.076 194.824 304.956 195.96 304.956 197.144C304.956 198.712 306.332 199.128 307.612 199.432C308.716 199.688 309.772 199.848 309.772 200.696C309.772 201.432 309.164 202.072 307.964 202.072C306.94 202.072 306.14 201.56 305.548 200.824L304.572 201.624C305.356 202.584 306.524 203.16 307.916 203.16ZM316.838 203H318.07V198.568C318.07 197.112 319.142 195.96 320.598 195.96C322.198 195.96 322.998 197 322.998 198.552V203H324.246V198.552C324.246 196.248 322.918 194.84 320.774 194.84C319.574 194.84 318.614 195.368 318.054 196.168V191.32H316.838V203ZM329.873 203.16C331.025 203.16 331.969 202.632 332.529 201.816V203H333.745V195H332.513V199.432C332.513 200.888 331.441 202.04 329.985 202.04C328.385 202.04 327.585 201 327.585 199.448V195H326.337V199.448C326.337 201.752 327.537 203.16 329.873 203.16ZM335.978 203H337.21V198.568C337.21 197.112 338.282 195.96 339.738 195.96C341.338 195.96 342.138 197 342.138 198.552V203H343.386V198.552C343.386 196.248 342.058 194.84 339.914 194.84C338.714 194.84 337.754 195.368 337.194 196.184V195H335.978V203ZM344.56 196.12H345.936V199.944C345.936 202.328 346.56 203 348.896 203H349.072V201.832C347.488 201.832 347.184 201.56 347.184 199.928V196.12H349.072V195H347.184V192.424L345.936 193.112V195H344.56V196.12ZM354.492 203.16C356.284 203.16 357.532 202.328 358.268 200.936L357.196 200.408C356.7 201.384 355.788 202.056 354.492 202.056C352.892 202.056 351.644 200.984 351.484 199.4H358.524V198.872C358.524 196.424 356.732 194.84 354.428 194.84C352.028 194.84 350.284 196.664 350.284 199.064C350.284 201.416 351.948 203.16 354.492 203.16ZM354.428 195.944C355.98 195.944 357.036 196.824 357.26 198.264H351.548C351.868 196.92 352.988 195.944 354.428 195.944ZM364.177 203.16C365.201 203.16 366.433 202.648 367.121 201.688V203H368.305V191.32H367.105V196.296C366.417 195.352 365.201 194.84 364.177 194.84C361.793 194.84 360.081 196.712 360.081 199C360.081 201.288 361.825 203.16 364.177 203.16ZM364.241 202.04C362.609 202.04 361.329 200.68 361.329 199C361.329 197.32 362.609 195.96 364.241 195.96C365.953 195.96 367.233 197.336 367.233 199C367.233 200.68 365.953 202.04 364.241 202.04ZM377.967 203.16C379.119 203.16 380.063 202.632 380.623 201.816V203H381.839V195H380.607V199.432C380.607 200.888 379.535 202.04 378.079 202.04C376.479 202.04 375.679 201 375.679 199.448V195H374.431V199.448C374.431 201.752 375.631 203.16 377.967 203.16ZM384.072 203H385.304V198.568C385.304 197.112 386.376 195.96 387.832 195.96C389.432 195.96 390.232 197 390.232 198.552V203H391.48V198.552C391.48 196.248 390.152 194.84 388.008 194.84C386.808 194.84 385.848 195.368 385.288 196.184V195H384.072V203ZM397.38 203.16C398.404 203.16 399.636 202.648 400.324 201.688V203H401.556V195H400.324V196.312C399.636 195.368 398.404 194.84 397.38 194.84C394.996 194.84 393.284 196.712 393.284 199C393.284 201.288 395.028 203.16 397.38 203.16ZM397.444 202.04C395.812 202.04 394.532 200.68 394.532 199C394.532 197.32 395.812 195.96 397.444 195.96C399.156 195.96 400.436 197.336 400.436 199C400.436 200.68 399.156 202.04 397.444 202.04ZM407.841 203.16C410.193 203.16 411.937 201.288 411.937 199C411.937 196.712 410.225 194.84 407.841 194.84C406.801 194.84 405.585 195.352 404.913 196.296V191.32H403.713V203H404.897V201.688C405.569 202.648 406.801 203.16 407.841 203.16ZM407.777 202.04C406.065 202.04 404.785 200.68 404.785 199C404.785 197.336 406.065 195.96 407.777 195.96C409.409 195.96 410.689 197.32 410.689 199C410.689 200.68 409.409 202.04 407.777 202.04ZM413.791 203H415.039V191.32H413.791V203ZM421.101 203.16C422.893 203.16 424.141 202.328 424.877 200.936L423.805 200.408C423.309 201.384 422.397 202.056 421.101 202.056C419.501 202.056 418.253 200.984 418.093 199.4H425.133V198.872C425.133 196.424 423.341 194.84 421.037 194.84C418.637 194.84 416.893 196.664 416.893 199.064C416.893 201.416 418.557 203.16 421.101 203.16ZM421.037 195.944C422.589 195.944 423.645 196.824 423.869 198.264H418.157C418.477 196.92 419.597 195.944 421.037 195.944ZM177.072 223H178.304V218.488C178.304 216.888 179.344 215.944 180.752 215.944C182.096 215.944 182.992 216.792 182.992 218.072V223H184.224V218.344C184.224 216.84 185.264 215.944 186.576 215.944C188.016 215.944 188.912 216.888 188.912 218.216V223H190.16V218.296C190.16 216.248 188.896 214.84 186.592 214.84C185.248 214.84 184.208 215.496 183.696 216.472C183.248 215.512 182.288 214.84 180.848 214.84C179.712 214.84 178.816 215.32 178.288 216.088V215H177.072V223ZM196.195 223.16C197.987 223.16 199.235 222.328 199.971 220.936L198.899 220.408C198.403 221.384 197.491 222.056 196.195 222.056C194.595 222.056 193.347 220.984 193.187 219.4H200.227V218.872C200.227 216.424 198.435 214.84 196.131 214.84C193.731 214.84 191.987 216.664 191.987 219.064C191.987 221.416 193.651 223.16 196.195 223.16ZM196.131 215.944C197.683 215.944 198.739 216.824 198.963 218.264H193.251C193.571 216.92 194.691 215.944 196.131 215.944ZM202.088 223H203.336V218.856C203.336 217 203.928 216.152 205.544 216.152H206.536V215H205.544C204.52 215 203.752 215.416 203.32 216.152V215H202.088V223ZM211.726 223.16C213.518 223.16 214.766 222.328 215.502 220.936L214.43 220.408C213.934 221.384 213.022 222.056 211.726 222.056C210.126 222.056 208.878 220.984 208.718 219.4H215.758V218.872C215.758 216.424 213.966 214.84 211.662 214.84C209.262 214.84 207.518 216.664 207.518 219.064C207.518 221.416 209.182 223.16 211.726 223.16ZM211.662 215.944C213.214 215.944 214.27 216.824 214.494 218.264H208.782C209.102 216.92 210.222 215.944 211.662 215.944ZM217.635 223H218.883V211.32H217.635V223ZM222.097 226.696H223.409L228.449 215H227.105L224.561 221.112L221.809 215H220.449L223.905 222.536L222.097 226.696ZM238.138 223.16C240.49 223.16 242.234 221.288 242.234 219C242.234 216.712 240.522 214.84 238.138 214.84C237.098 214.84 235.882 215.352 235.21 216.296V211.32H234.01V223H235.194V221.688C235.866 222.648 237.098 223.16 238.138 223.16ZM238.074 222.04C236.362 222.04 235.082 220.68 235.082 219C235.082 217.336 236.362 215.96 238.074 215.96C239.706 215.96 240.986 217.32 240.986 219C240.986 220.68 239.706 222.04 238.074 222.04ZM244.644 226.696H245.956L250.996 215H249.652L247.108 221.112L244.356 215H242.996L246.452 222.536L244.644 226.696ZM256.541 223H257.773V218.488C257.773 216.888 258.813 215.944 260.221 215.944C261.565 215.944 262.461 216.792 262.461 218.072V223H263.693V218.344C263.693 216.84 264.733 215.944 266.045 215.944C267.485 215.944 268.381 216.888 268.381 218.216V223H269.629V218.296C269.629 216.248 268.365 214.84 266.061 214.84C264.717 214.84 263.677 215.496 263.165 216.472C262.717 215.512 261.757 214.84 260.317 214.84C259.181 214.84 258.285 215.32 257.757 216.088V215H256.541V223ZM271.76 223H273.008V218.856C273.008 217 273.6 216.152 275.216 216.152H276.208V215H275.216C274.192 215 273.424 215.416 272.992 216.152V215H271.76V223ZM284.122 223H285.354L287.77 216.712L290.25 223H291.45L294.154 215H292.858L290.81 221.272L288.378 215H287.178L284.81 221.24L282.794 215H281.482L284.122 223ZM295.822 223H297.054V218.568C297.054 217.112 298.126 215.96 299.582 215.96C301.182 215.96 301.982 217 301.982 218.552V223H303.23V218.552C303.23 216.248 301.902 214.84 299.758 214.84C298.558 214.84 297.598 215.368 297.038 216.168V211.32H295.822V223ZM309.257 223.16C311.049 223.16 312.297 222.328 313.033 220.936L311.961 220.408C311.465 221.384 310.553 222.056 309.257 222.056C307.657 222.056 306.409 220.984 306.249 219.4H313.289V218.872C313.289 216.424 311.497 214.84 309.193 214.84C306.793 214.84 305.049 216.664 305.049 219.064C305.049 221.416 306.713 223.16 309.257 223.16ZM309.193 215.944C310.745 215.944 311.801 216.824 312.025 218.264H306.313C306.633 216.92 307.753 215.944 309.193 215.944ZM315.15 223H316.382V218.568C316.382 217.112 317.454 215.96 318.91 215.96C320.51 215.96 321.31 217 321.31 218.552V223H322.558V218.552C322.558 216.248 321.23 214.84 319.086 214.84C317.886 214.84 316.926 215.368 316.366 216.184V215H315.15V223ZM328.57 223.16C330.474 223.16 331.738 222.12 332.378 220.664L331.242 220.184C330.794 221.24 329.93 222.04 328.602 222.04C326.874 222.04 325.61 220.68 325.61 219C325.61 217.32 326.858 215.96 328.538 215.96C329.786 215.96 330.682 216.6 331.178 217.704L332.298 217.224C331.706 215.816 330.298 214.84 328.554 214.84C326.202 214.84 324.362 216.6 324.362 219C324.362 221.304 326.122 223.16 328.57 223.16ZM337.96 223.16C339.752 223.16 341 222.328 341.736 220.936L340.664 220.408C340.168 221.384 339.256 222.056 337.96 222.056C336.36 222.056 335.112 220.984 334.952 219.4H341.992V218.872C341.992 216.424 340.2 214.84 337.896 214.84C335.496 214.84 333.752 216.664 333.752 219.064C333.752 221.416 335.416 223.16 337.96 223.16ZM337.896 215.944C339.448 215.944 340.504 216.824 340.728 218.264H335.016C335.336 216.92 336.456 215.944 337.896 215.944ZM351.693 223.16C353.997 223.16 355.853 221.352 355.853 219C355.853 216.648 353.997 214.84 351.693 214.84C349.389 214.84 347.549 216.648 347.549 219C347.549 221.352 349.389 223.16 351.693 223.16ZM351.693 222.04C350.061 222.04 348.797 220.68 348.797 219C348.797 217.32 350.061 215.96 351.693 215.96C353.325 215.96 354.605 217.32 354.605 219C354.605 220.68 353.325 222.04 351.693 222.04ZM357.697 223H358.945V218.856C358.945 217 359.537 216.152 361.153 216.152H362.145V215H361.153C360.129 215 359.361 215.416 358.929 216.152V215H357.697V223ZM363.836 223H365.084V220.808H363.836V223Z" fill="#657582"/>
<path d="M184.06 145.26C187.882 145.26 190.716 142.686 190.716 138.604V126.02H187.908V138.786C187.908 140.892 186.218 142.608 184.034 142.608C181.876 142.608 180.238 140.892 180.238 138.786V126.02H177.404V138.604C177.404 142.686 180.212 145.26 184.06 145.26ZM193.761 145H196.595V126.02H193.761V145ZM199.516 145H202.298V141.438H199.516V145ZM210.932 145.26C212.648 145.26 214.286 144.48 215.274 143.206V145H218.03V126.02H215.274V133.69C214.312 132.494 212.674 131.74 210.958 131.74C207.552 131.74 204.458 134.34 204.458 138.5C204.458 142.634 207.63 145.26 210.932 145.26ZM211.322 142.712C209.008 142.712 207.214 140.84 207.214 138.474C207.214 136.108 209.008 134.262 211.322 134.262C213.688 134.262 215.43 136.16 215.43 138.474C215.43 140.814 213.688 142.712 211.322 142.712ZM227.115 145.26C230.001 145.26 232.055 143.856 233.199 141.724L230.911 140.45C230.235 141.854 228.883 142.79 227.115 142.79C224.853 142.79 223.293 141.464 222.929 139.462H233.693V138.37C233.693 134.522 230.859 131.74 227.011 131.74C223.189 131.74 220.251 134.73 220.251 138.552C220.251 142.322 223.007 145.26 227.115 145.26ZM227.011 134.184C229.013 134.184 230.443 135.224 230.859 137.096H223.059C223.579 135.38 225.087 134.184 227.011 134.184ZM240.712 145.26C244.404 145.286 245.964 142.868 245.964 141.074C245.964 138.37 243.546 137.668 241.414 137.2C239.542 136.784 238.346 136.524 238.346 135.588C238.346 134.756 239.1 134.028 240.582 134.028C241.882 134.028 242.896 134.6 243.494 135.51L245.808 134.236C244.794 132.676 243 131.714 240.582 131.714C237.514 131.688 235.564 133.586 235.564 135.64C235.564 138.318 237.852 139.046 240.062 139.514C241.7 139.852 243.208 140.086 243.208 141.126C243.208 142.036 242.402 142.842 240.842 142.842C239.36 142.842 238.216 142.14 237.514 140.944L235.018 142.244C236.11 144.168 238.008 145.26 240.712 145.26ZM257.162 145H260.282L255.082 137.564L260.152 132H256.798L250.948 138.448V126.02H248.192V145H250.948V141.62L253.132 139.228L257.162 145Z" fill="#2C3847"/>
<path d="M593.256 240H594.504V229.472H598.008V228.32H589.736V229.472H593.256V240ZM601.804 240.16C603.596 240.16 604.844 239.328 605.58 237.936L604.508 237.408C604.012 238.384 603.1 239.056 601.804 239.056C600.204 239.056 598.956 237.984 598.796 236.4H605.836V235.872C605.836 233.424 604.044 231.84 601.74 231.84C599.34 231.84 597.596 233.664 597.596 236.064C597.596 238.416 599.26 240.16 601.804 240.16ZM601.74 232.944C603.292 232.944 604.348 233.824 604.572 235.264H598.86C599.18 233.92 600.3 232.944 601.74 232.944ZM611.489 240.16C612.513 240.16 613.745 239.648 614.433 238.688V240H615.665V232H614.433V233.312C613.745 232.368 612.513 231.84 611.489 231.84C609.105 231.84 607.393 233.712 607.393 236C607.393 238.288 609.137 240.16 611.489 240.16ZM611.553 239.04C609.921 239.04 608.641 237.68 608.641 236C608.641 234.32 609.921 232.96 611.553 232.96C613.265 232.96 614.545 234.336 614.545 236C614.545 237.68 613.265 239.04 611.553 239.04ZM617.9 240H619.132V235.488C619.132 233.888 620.172 232.944 621.58 232.944C622.924 232.944 623.82 233.792 623.82 235.072V240H625.052V235.344C625.052 233.84 626.092 232.944 627.404 232.944C628.844 232.944 629.74 233.888 629.74 235.216V240H630.988V235.296C630.988 233.248 629.724 231.84 627.42 231.84C626.076 231.84 625.036 232.496 624.524 233.472C624.076 232.512 623.116 231.84 621.676 231.84C620.54 231.84 619.644 232.32 619.116 233.088V232H617.9V240Z" fill="#657582"/>
<path d="M590.152 208H591.4V198.224L598.344 208H599.672V196.32H598.424V206.016L591.544 196.32H590.152V208ZM605.804 208.16C607.596 208.16 608.844 207.328 609.58 205.936L608.508 205.408C608.012 206.384 607.1 207.056 605.804 207.056C604.204 207.056 602.956 205.984 602.796 204.4H609.836V203.872C609.836 201.424 608.044 199.84 605.74 199.84C603.34 199.84 601.596 201.664 601.596 204.064C601.596 206.416 603.26 208.16 605.804 208.16ZM605.74 200.944C607.292 200.944 608.348 201.824 608.572 203.264H602.86C603.18 201.92 604.3 200.944 605.74 200.944ZM613.607 208H614.839L617.255 201.712L619.735 208H620.935L623.639 200H622.343L620.295 206.272L617.863 200H616.663L614.295 206.24L612.279 200H610.967L613.607 208ZM627.979 208.16C630.203 208.16 631.051 206.72 631.051 205.696C631.051 204.096 629.627 203.696 628.331 203.392C627.243 203.136 626.235 202.944 626.235 202.128C626.235 201.456 626.827 200.88 627.931 200.88C628.827 200.88 629.515 201.216 630.059 201.824L630.971 201.056C630.283 200.256 629.115 199.824 627.931 199.824C626.139 199.824 625.019 200.96 625.019 202.144C625.019 203.712 626.395 204.128 627.675 204.432C628.779 204.688 629.835 204.848 629.835 205.696C629.835 206.432 629.227 207.072 628.027 207.072C627.003 207.072 626.203 206.56 625.611 205.824L624.635 206.624C625.419 207.584 626.587 208.16 627.979 208.16Z" fill="#657582"/>
<path d="M595.8 176.16C598.232 176.16 600.152 174.848 601.16 172.928L600.056 172.352C599.288 173.904 597.832 174.976 595.8 174.976C593.112 174.976 591.08 172.8 591.08 170.16C591.08 167.52 593.112 165.344 595.8 165.344C597.608 165.344 599.128 166.336 599.928 167.792L601 167.168C599.96 165.376 598.024 164.16 595.8 164.16C592.488 164.16 589.8 166.848 589.8 170.16C589.8 173.472 592.488 176.16 595.8 176.16ZM606.74 176.16C609.044 176.16 610.9 174.352 610.9 172C610.9 169.648 609.044 167.84 606.74 167.84C604.436 167.84 602.596 169.648 602.596 172C602.596 174.352 604.436 176.16 606.74 176.16ZM606.74 175.04C605.108 175.04 603.844 173.68 603.844 172C603.844 170.32 605.108 168.96 606.74 168.96C608.372 168.96 609.652 170.32 609.652 172C609.652 173.68 608.372 175.04 606.74 175.04ZM612.744 176H613.976V171.488C613.976 169.888 615.016 168.944 616.424 168.944C617.768 168.944 618.664 169.792 618.664 171.072V176H619.896V171.344C619.896 169.84 620.936 168.944 622.248 168.944C623.688 168.944 624.584 169.888 624.584 171.216V176H625.832V171.296C625.832 169.248 624.568 167.84 622.264 167.84C620.92 167.84 619.88 168.496 619.368 169.472C618.92 168.512 617.96 167.84 616.52 167.84C615.384 167.84 614.488 168.32 613.96 169.088V168H612.744V176ZM632.091 176.16C634.443 176.16 636.187 174.288 636.187 172C636.187 169.712 634.475 167.84 632.091 167.84C631.051 167.84 629.819 168.368 629.147 169.312V168H627.963V179.68H629.163V174.784C629.819 175.712 630.971 176.16 632.091 176.16ZM632.027 175.04C630.315 175.04 629.035 173.68 629.035 172C629.035 170.336 630.315 168.96 632.027 168.96C633.659 168.96 634.939 170.32 634.939 172C634.939 173.68 633.659 175.04 632.027 175.04ZM641.895 176.16C642.919 176.16 644.151 175.648 644.839 174.688V176H646.071V168H644.839V169.312C644.151 168.368 642.919 167.84 641.895 167.84C639.511 167.84 637.799 169.712 637.799 172C637.799 174.288 639.543 176.16 641.895 176.16ZM641.959 175.04C640.327 175.04 639.047 173.68 639.047 172C639.047 170.32 640.327 168.96 641.959 168.96C643.671 168.96 644.951 170.336 644.951 172C644.951 173.68 643.671 175.04 641.959 175.04ZM648.306 176H649.538V171.568C649.538 170.112 650.61 168.96 652.066 168.96C653.666 168.96 654.466 170 654.466 171.552V176H655.714V171.552C655.714 169.248 654.386 167.84 652.242 167.84C651.042 167.84 650.082 168.368 649.522 169.184V168H648.306V176ZM658.472 179.696H659.784L664.824 168H663.48L660.936 174.112L658.184 168H656.824L660.28 175.536L658.472 179.696Z" fill="#657582"/>
<path d="M599.89 134H602.266V117.94H599.89V124.782H592.63V117.94H590.232V134H592.63V127.07H599.89V134ZM609.948 134.22C613.116 134.22 615.668 131.69 615.668 128.5C615.668 125.288 613.116 122.78 609.948 122.78C606.78 122.78 604.25 125.288 604.25 128.5C604.25 131.69 606.78 134.22 609.948 134.22ZM609.948 132.02C608.056 132.02 606.582 130.436 606.582 128.5C606.582 126.564 608.056 124.98 609.948 124.98C611.84 124.98 613.336 126.564 613.336 128.5C613.336 130.436 611.84 132.02 609.948 132.02ZM617.536 134H619.89V127.884C619.89 125.86 621.034 124.826 622.574 124.826C624.158 124.826 625.06 125.838 625.06 127.444V134H627.436V127.796C627.436 125.838 628.58 124.826 630.054 124.826C631.704 124.826 632.606 125.904 632.606 127.554V134H635.004V127.4C635.004 124.584 633.442 122.78 630.45 122.78C628.822 122.78 627.48 123.55 626.732 124.76C626.094 123.528 624.862 122.78 623.102 122.78C621.694 122.78 620.572 123.352 619.868 124.32V123H617.536V134ZM642.65 134.22C645.092 134.22 646.83 133.032 647.798 131.228L645.862 130.15C645.29 131.338 644.146 132.13 642.65 132.13C640.736 132.13 639.416 131.008 639.108 129.314H648.216V128.39C648.216 125.134 645.818 122.78 642.562 122.78C639.328 122.78 636.842 125.31 636.842 128.544C636.842 131.734 639.174 134.22 642.65 134.22ZM642.562 124.848C644.256 124.848 645.466 125.728 645.818 127.312H639.218C639.658 125.86 640.934 124.848 642.562 124.848Z" fill="#2C3847"/>
<path d="M782.152 240H783.4V236.368H785.8C788.344 236.368 790.056 234.608 790.056 232.336C790.056 230.064 788.344 228.32 785.8 228.32H782.152V240ZM785.72 229.472C787.64 229.472 788.792 230.704 788.792 232.336C788.792 233.952 787.64 235.2 785.72 235.2H783.4V229.472H785.72ZM791.963 240H793.211V235.856C793.211 234 793.803 233.152 795.419 233.152H796.411V232H795.419C794.395 232 793.627 232.416 793.195 233.152V232H791.963V240ZM798.181 240H799.429V232H798.181V240ZM798.181 230.608H799.429V228.32H798.181V230.608ZM805.476 240.16C807.38 240.16 808.644 239.12 809.284 237.664L808.148 237.184C807.7 238.24 806.836 239.04 805.508 239.04C803.78 239.04 802.516 237.68 802.516 236C802.516 234.32 803.764 232.96 805.444 232.96C806.692 232.96 807.588 233.6 808.084 234.704L809.204 234.224C808.612 232.816 807.204 231.84 805.46 231.84C803.108 231.84 801.268 233.6 801.268 236C801.268 238.304 803.028 240.16 805.476 240.16ZM810.963 240H812.211V232H810.963V240ZM810.963 230.608H812.211V228.32H810.963V230.608ZM814.353 240H815.585V235.568C815.585 234.112 816.657 232.96 818.113 232.96C819.713 232.96 820.513 234 820.513 235.552V240H821.761V235.552C821.761 233.248 820.433 231.84 818.289 231.84C817.089 231.84 816.129 232.368 815.569 233.184V232H814.353V240ZM827.661 240.16C828.701 240.16 829.949 239.632 830.621 238.672V239.888C830.621 241.6 829.629 242.816 827.885 242.816C826.525 242.816 825.725 242.208 825.341 241.296L824.125 241.696C824.701 243.04 825.933 243.904 827.885 243.904C830.301 243.904 831.837 242.288 831.837 239.856V232H830.605V233.312C829.917 232.368 828.685 231.84 827.661 231.84C825.277 231.84 823.565 233.712 823.565 236C823.565 238.288 825.309 240.16 827.661 240.16ZM827.725 239.04C826.093 239.04 824.813 237.68 824.813 236C824.813 234.32 826.093 232.96 827.725 232.96C829.437 232.96 830.717 234.336 830.717 236C830.717 237.68 829.437 239.04 827.725 239.04Z" fill="#657582"/>
<path d="M785.496 208.16C787.752 208.16 789.24 206.544 789.24 204.816C789.24 202.688 787.528 202.016 785.912 201.456C784.472 200.96 783.128 200.528 783.128 199.184C783.128 198.096 784.12 197.264 785.432 197.264C786.616 197.264 787.48 197.728 788.072 198.656L789.064 197.92C788.216 196.816 787.096 196.16 785.448 196.16C783.4 196.16 781.864 197.488 781.864 199.184C781.864 201.216 783.528 201.888 785.128 202.432C786.584 202.928 787.976 203.376 787.976 204.816C787.976 206.096 786.952 207.024 785.496 207.024C784.168 207.024 783.208 206.432 782.424 205.216L781.368 206.016C782.312 207.36 783.608 208.16 785.496 208.16ZM795.226 208.16C797.018 208.16 798.266 207.328 799.002 205.936L797.93 205.408C797.434 206.384 796.522 207.056 795.226 207.056C793.626 207.056 792.378 205.984 792.218 204.4H799.258V203.872C799.258 201.424 797.466 199.84 795.162 199.84C792.762 199.84 791.018 201.664 791.018 204.064C791.018 206.416 792.682 208.16 795.226 208.16ZM795.162 200.944C796.714 200.944 797.77 201.824 797.994 203.264H792.282C792.602 201.92 793.722 200.944 795.162 200.944ZM801.119 208H802.367V203.856C802.367 202 802.959 201.152 804.575 201.152H805.567V200H804.575C803.551 200 802.783 200.416 802.351 201.152V200H801.119V208ZM810.084 208H811.316L814.42 200H813.092L810.724 206.32L808.324 200H806.98L810.084 208ZM815.978 208H817.226V200H815.978V208ZM815.978 198.608H817.226V196.32H815.978V198.608ZM823.273 208.16C825.177 208.16 826.441 207.12 827.081 205.664L825.945 205.184C825.497 206.24 824.633 207.04 823.305 207.04C821.577 207.04 820.313 205.68 820.313 204C820.313 202.32 821.561 200.96 823.241 200.96C824.489 200.96 825.385 201.6 825.881 202.704L827.001 202.224C826.409 200.816 825.001 199.84 823.257 199.84C820.905 199.84 819.065 201.6 819.065 204C819.065 206.304 820.825 208.16 823.273 208.16ZM832.664 208.16C834.456 208.16 835.704 207.328 836.44 205.936L835.368 205.408C834.872 206.384 833.96 207.056 832.664 207.056C831.064 207.056 829.816 205.984 829.656 204.4H836.696V203.872C836.696 201.424 834.904 199.84 832.6 199.84C830.2 199.84 828.456 201.664 828.456 204.064C828.456 206.416 830.12 208.16 832.664 208.16ZM832.6 200.944C834.152 200.944 835.208 201.824 835.432 203.264H829.72C830.039 201.92 831.16 200.944 832.6 200.944Z" fill="#657582"/>
<path d="M789.56 176H790.808V164.32H789.56V169.52H783.4V164.32H782.152V176H783.4V170.72H789.56V176ZM793.025 176H794.273V168H793.025V176ZM793.025 166.608H794.273V164.32H793.025V166.608ZM799.104 176.16C801.328 176.16 802.176 174.72 802.176 173.696C802.176 172.096 800.752 171.696 799.456 171.392C798.368 171.136 797.36 170.944 797.36 170.128C797.36 169.456 797.952 168.88 799.056 168.88C799.952 168.88 800.64 169.216 801.184 169.824L802.096 169.056C801.408 168.256 800.24 167.824 799.056 167.824C797.264 167.824 796.144 168.96 796.144 170.144C796.144 171.712 797.52 172.128 798.8 172.432C799.904 172.688 800.96 172.848 800.96 173.696C800.96 174.432 800.352 175.072 799.152 175.072C798.128 175.072 797.328 174.56 796.736 173.824L795.76 174.624C796.544 175.584 797.712 176.16 799.104 176.16ZM803.403 169.12H804.779V172.944C804.779 175.328 805.403 176 807.739 176H807.915V174.832C806.331 174.832 806.027 174.56 806.027 172.928V169.12H807.915V168H806.027V165.424L804.779 166.112V168H803.403V169.12ZM813.271 176.16C815.575 176.16 817.431 174.352 817.431 172C817.431 169.648 815.575 167.84 813.271 167.84C810.967 167.84 809.127 169.648 809.127 172C809.127 174.352 810.967 176.16 813.271 176.16ZM813.271 175.04C811.639 175.04 810.375 173.68 810.375 172C810.375 170.32 811.639 168.96 813.271 168.96C814.903 168.96 816.183 170.32 816.183 172C816.183 173.68 814.903 175.04 813.271 175.04ZM819.275 176H820.523V171.856C820.523 170 821.115 169.152 822.731 169.152H823.723V168H822.731C821.707 168 820.939 168.416 820.507 169.152V168H819.275V176ZM826.706 179.696H828.018L833.058 168H831.714L829.17 174.112L826.418 168H825.058L828.514 175.536L826.706 179.696Z" fill="#657582"/>
<path d="M781.528 134H784.036L785.268 130.568H792.044L793.298 134H795.784L789.888 117.94H787.424L781.528 134ZM788.656 121.24L791.208 128.28H786.104L788.656 121.24ZM803.468 134.22C806.262 134.22 808.924 131.998 808.924 128.5C808.924 124.98 806.328 122.78 803.446 122.78C801.972 122.78 800.608 123.44 799.794 124.474V117.94H797.462V134H799.772V132.504C800.586 133.582 801.994 134.22 803.468 134.22ZM803.116 132.064C801.136 132.064 799.662 130.458 799.662 128.478C799.662 126.52 801.136 124.914 803.116 124.914C805.074 124.914 806.592 126.476 806.592 128.478C806.592 130.48 805.074 132.064 803.116 132.064ZM816.192 134.22C819.36 134.22 821.912 131.69 821.912 128.5C821.912 125.288 819.36 122.78 816.192 122.78C813.024 122.78 810.494 125.288 810.494 128.5C810.494 131.69 813.024 134.22 816.192 134.22ZM816.192 132.02C814.3 132.02 812.826 130.436 812.826 128.5C812.826 126.564 814.3 124.98 816.192 124.98C818.084 124.98 819.58 126.564 819.58 128.5C819.58 130.436 818.084 132.02 816.192 132.02ZM828.268 134.22C829.676 134.22 830.864 133.582 831.612 132.57V134H833.944V123H831.59V129.05C831.59 130.964 830.38 132.152 828.818 132.152C827.036 132.152 826.156 131.008 826.156 129.204V123H823.758V129.402C823.758 132.416 825.364 134.22 828.268 134.22ZM835.736 125.112H837.606V129.512C837.606 132.944 838.618 134 841.962 134H842.314V131.778C840.29 131.778 839.982 131.47 839.982 129.49V125.112H842.314V123H839.982V119.106L837.606 120.404V123H835.736V125.112Z" fill="#2C3847"/>
<path d="M956.152 240H957.4V230.496L961.784 236.48L966.344 230.336V240H967.592V228.32H966.392L961.816 234.448L957.384 228.32H956.152V240ZM973.614 240.16C974.638 240.16 975.87 239.648 976.558 238.688V240H977.79V232H976.558V233.312C975.87 232.368 974.638 231.84 973.614 231.84C971.23 231.84 969.518 233.712 969.518 236C969.518 238.288 971.262 240.16 973.614 240.16ZM973.678 239.04C972.046 239.04 970.766 237.68 970.766 236C970.766 234.32 972.046 232.96 973.678 232.96C975.39 232.96 976.67 234.336 976.67 236C976.67 237.68 975.39 239.04 973.678 239.04ZM980.025 240H981.273V235.856C981.273 234 981.865 233.152 983.481 233.152H984.473V232H983.481C982.457 232 981.689 232.416 981.257 233.152V232H980.025V240ZM991.876 240H993.316L989.988 235.392L993.3 232H991.732L987.476 236.352V228.32H986.26V240H987.476V237.776L989.092 236.128L991.876 240ZM998.085 240.16C999.877 240.16 1001.13 239.328 1001.86 237.936L1000.79 237.408C1000.29 238.384 999.381 239.056 998.085 239.056C996.485 239.056 995.237 237.984 995.077 236.4H1002.12V235.872C1002.12 233.424 1000.33 231.84 998.021 231.84C995.621 231.84 993.877 233.664 993.877 236.064C993.877 238.416 995.541 240.16 998.085 240.16ZM998.021 232.944C999.573 232.944 1000.63 233.824 1000.85 235.264H995.141C995.461 233.92 996.581 232.944 998.021 232.944ZM1003.22 233.12H1004.59V236.944C1004.59 239.328 1005.22 240 1007.55 240H1007.73V238.832C1006.14 238.832 1005.84 238.56 1005.84 236.928V233.12H1007.73V232H1005.84V229.424L1004.59 230.112V232H1003.22V233.12ZM1009.56 240H1010.8V232H1009.56V240ZM1009.56 230.608H1010.8V228.32H1009.56V230.608ZM1012.95 240H1014.18V235.568C1014.18 234.112 1015.25 232.96 1016.71 232.96C1018.31 232.96 1019.11 234 1019.11 235.552V240H1020.36V235.552C1020.36 233.248 1019.03 231.84 1016.88 231.84C1015.68 231.84 1014.72 232.368 1014.16 233.184V232H1012.95V240ZM1026.25 240.16C1027.29 240.16 1028.54 239.632 1029.21 238.672V239.888C1029.21 241.6 1028.22 242.816 1026.48 242.816C1025.12 242.816 1024.32 242.208 1023.93 241.296L1022.72 241.696C1023.29 243.04 1024.53 243.904 1026.48 243.904C1028.89 243.904 1030.43 242.288 1030.43 239.856V232H1029.2V233.312C1028.51 232.368 1027.28 231.84 1026.25 231.84C1023.87 231.84 1022.16 233.712 1022.16 236C1022.16 238.288 1023.9 240.16 1026.25 240.16ZM1026.32 239.04C1024.69 239.04 1023.41 237.68 1023.41 236C1023.41 234.32 1024.69 232.96 1026.32 232.96C1028.03 232.96 1029.31 234.336 1029.31 236C1029.31 237.68 1028.03 239.04 1026.32 239.04Z" fill="#657582"/>
<path d="M956.152 208H957.4V204.368H959.8C962.344 204.368 964.056 202.608 964.056 200.336C964.056 198.064 962.344 196.32 959.8 196.32H956.152V208ZM959.72 197.472C961.64 197.472 962.792 198.704 962.792 200.336C962.792 201.952 961.64 203.2 959.72 203.2H957.4V197.472H959.72ZM965.979 208H967.227V196.32H965.979V208ZM973.177 208.16C974.201 208.16 975.433 207.648 976.121 206.688V208H977.352V200H976.121V201.312C975.433 200.368 974.201 199.84 973.177 199.84C970.793 199.84 969.081 201.712 969.081 204C969.081 206.288 970.825 208.16 973.177 208.16ZM973.241 207.04C971.609 207.04 970.329 205.68 970.329 204C970.329 202.32 971.609 200.96 973.241 200.96C974.953 200.96 976.233 202.336 976.233 204C976.233 205.68 974.953 207.04 973.241 207.04ZM979.588 208H980.82V203.568C980.82 202.112 981.892 200.96 983.348 200.96C984.948 200.96 985.748 202 985.748 203.552V208H986.996V203.552C986.996 201.248 985.668 199.84 983.524 199.84C982.324 199.84 981.364 200.368 980.804 201.184V200H979.588V208Z" fill="#657582"/>
<path d="M956.152 176H960.648C962.824 176 964.312 174.736 964.312 172.72C964.312 171.392 963.672 170.384 962.52 169.92C963.48 169.44 963.992 168.512 963.992 167.408C963.992 165.536 962.552 164.32 960.408 164.32H956.152V176ZM960.6 170.56C962.2 170.56 963.048 171.44 963.048 172.704C963.048 173.952 962.088 174.864 960.632 174.864H957.4V170.56H960.6ZM960.392 165.456C961.816 165.456 962.728 166.256 962.728 167.408C962.728 168.544 961.96 169.408 960.536 169.408H957.4V165.456H960.392ZM969.685 176.16C970.837 176.16 971.781 175.632 972.341 174.816V176H973.557V168H972.325V172.432C972.325 173.888 971.253 175.04 969.797 175.04C968.197 175.04 967.397 174 967.397 172.448V168H966.149V172.448C966.149 174.752 967.349 176.16 969.685 176.16ZM978.385 176.16C980.609 176.16 981.457 174.72 981.457 173.696C981.457 172.096 980.033 171.696 978.737 171.392C977.649 171.136 976.641 170.944 976.641 170.128C976.641 169.456 977.233 168.88 978.337 168.88C979.233 168.88 979.921 169.216 980.465 169.824L981.377 169.056C980.689 168.256 979.521 167.824 978.337 167.824C976.545 167.824 975.425 168.96 975.425 170.144C975.425 171.712 976.801 172.128 978.081 172.432C979.185 172.688 980.241 172.848 980.241 173.696C980.241 174.432 979.633 175.072 978.433 175.072C977.409 175.072 976.609 174.56 976.017 173.824L975.041 174.624C975.825 175.584 976.993 176.16 978.385 176.16ZM983.291 176H984.539V168H983.291V176ZM983.291 166.608H984.539V164.32H983.291V166.608ZM986.681 176H987.913V171.568C987.913 170.112 988.985 168.96 990.441 168.96C992.041 168.96 992.841 170 992.841 171.552V176H994.089V171.552C994.089 169.248 992.761 167.84 990.617 167.84C989.417 167.84 988.457 168.368 987.897 169.184V168H986.681V176ZM1000.1 176.16C1001.89 176.16 1003.14 175.328 1003.88 173.936L1002.81 173.408C1002.31 174.384 1001.4 175.056 1000.1 175.056C998.501 175.056 997.253 173.984 997.093 172.4H1004.13V171.872C1004.13 169.424 1002.34 167.84 1000.04 167.84C997.637 167.84 995.893 169.664 995.893 172.064C995.893 174.416 997.557 176.16 1000.1 176.16ZM1000.04 168.944C1001.59 168.944 1002.65 169.824 1002.87 171.264H997.157C997.477 169.92 998.597 168.944 1000.04 168.944ZM1008.68 176.16C1010.91 176.16 1011.75 174.72 1011.75 173.696C1011.75 172.096 1010.33 171.696 1009.03 171.392C1007.95 171.136 1006.94 170.944 1006.94 170.128C1006.94 169.456 1007.53 168.88 1008.63 168.88C1009.53 168.88 1010.22 169.216 1010.76 169.824L1011.67 169.056C1010.99 168.256 1009.82 167.824 1008.63 167.824C1006.84 167.824 1005.72 168.96 1005.72 170.144C1005.72 171.712 1007.1 172.128 1008.38 172.432C1009.48 172.688 1010.54 172.848 1010.54 173.696C1010.54 174.432 1009.93 175.072 1008.73 175.072C1007.71 175.072 1006.91 174.56 1006.31 173.824L1005.34 174.624C1006.12 175.584 1007.29 176.16 1008.68 176.16ZM1016.28 176.16C1018.5 176.16 1019.35 174.72 1019.35 173.696C1019.35 172.096 1017.92 171.696 1016.63 171.392C1015.54 171.136 1014.53 170.944 1014.53 170.128C1014.53 169.456 1015.12 168.88 1016.23 168.88C1017.12 168.88 1017.81 169.216 1018.36 169.824L1019.27 169.056C1018.58 168.256 1017.41 167.824 1016.23 167.824C1014.44 167.824 1013.32 168.96 1013.32 170.144C1013.32 171.712 1014.69 172.128 1015.97 172.432C1017.08 172.688 1018.13 172.848 1018.13 173.696C1018.13 174.432 1017.52 175.072 1016.32 175.072C1015.3 175.072 1014.5 174.56 1013.91 173.824L1012.93 174.624C1013.72 175.584 1014.88 176.16 1016.28 176.16Z" fill="#657582"/>
<path d="M956.232 134H958.63V129.204H961.49C964.922 129.204 967.32 126.718 967.32 123.572C967.32 120.404 964.922 117.94 961.512 117.94H956.232V134ZM961.336 120.14C963.536 120.14 964.922 121.636 964.922 123.572C964.922 125.486 963.536 126.982 961.336 126.982H958.63V120.14H961.336ZM974.009 134.22C975.461 134.22 976.847 133.56 977.683 132.482V134H980.037V123H977.683V124.43C976.869 123.418 975.483 122.78 974.031 122.78C971.149 122.78 968.531 124.98 968.531 128.5C968.531 131.998 971.215 134.22 974.009 134.22ZM974.339 132.064C972.381 132.064 970.863 130.48 970.863 128.478C970.863 126.476 972.381 124.914 974.339 124.914C976.341 124.914 977.815 126.52 977.815 128.478C977.815 130.458 976.341 132.064 974.339 132.064ZM982.419 134H984.795V128.544C984.795 126.256 985.543 125.244 987.457 125.244H989.107V123H987.809C986.357 123 985.345 123.616 984.773 124.694V123H982.419V134ZM990.529 125.112H992.399V129.512C992.399 132.944 993.411 134 996.755 134H997.107V131.778C995.083 131.778 994.775 131.47 994.775 129.49V125.112H997.107V123H994.775V119.106L992.399 120.404V123H990.529V125.112ZM999.069 134H1001.42V127.95C1001.42 126.014 1002.63 124.826 1004.22 124.826C1005.98 124.826 1006.88 125.97 1006.88 127.774V134H1009.26V127.576C1009.26 124.584 1007.56 122.78 1004.79 122.78C1003.34 122.78 1002.15 123.418 1001.4 124.43V123H999.069V134ZM1016.92 134.22C1019.36 134.22 1021.1 133.032 1022.07 131.228L1020.13 130.15C1019.56 131.338 1018.42 132.13 1016.92 132.13C1015.01 132.13 1013.69 131.008 1013.38 129.314H1022.49V128.39C1022.49 125.134 1020.09 122.78 1016.83 122.78C1013.6 122.78 1011.11 125.31 1011.11 128.544C1011.11 131.734 1013.45 134.22 1016.92 134.22ZM1016.83 124.848C1018.53 124.848 1019.74 125.728 1020.09 127.312H1013.49C1013.93 125.86 1015.21 124.848 1016.83 124.848ZM1024.38 134H1026.75V128.544C1026.75 126.256 1027.5 125.244 1029.42 125.244H1031.07V123H1029.77C1028.32 123 1027.3 123.616 1026.73 124.694V123H1024.38V134Z" fill="#2C3847"/>
<path d="M1151.15 240H1157.62V238.8H1152.4V228.32H1151.15V240ZM1162.91 240.16C1163.93 240.16 1165.17 239.648 1165.85 238.688V240H1167.09V232H1165.85V233.312C1165.17 232.368 1163.93 231.84 1162.91 231.84C1160.53 231.84 1158.81 233.712 1158.81 236C1158.81 238.288 1160.56 240.16 1162.91 240.16ZM1162.97 239.04C1161.34 239.04 1160.06 237.68 1160.06 236C1160.06 234.32 1161.34 232.96 1162.97 232.96C1164.69 232.96 1165.97 234.336 1165.97 236C1165.97 237.68 1164.69 239.04 1162.97 239.04ZM1169.24 240H1170.48V235.568C1170.48 234.112 1171.55 232.96 1173 232.96C1174.6 232.96 1175.4 234 1175.4 235.552V240H1176.65V235.552C1176.65 233.248 1175.32 231.84 1173.18 231.84C1171.98 231.84 1171.02 232.368 1170.46 233.168V228.32H1169.24V240ZM1182.62 240.16C1184.92 240.16 1186.78 238.352 1186.78 236C1186.78 233.648 1184.92 231.84 1182.62 231.84C1180.31 231.84 1178.47 233.648 1178.47 236C1178.47 238.352 1180.31 240.16 1182.62 240.16ZM1182.62 239.04C1180.98 239.04 1179.72 237.68 1179.72 236C1179.72 234.32 1180.98 232.96 1182.62 232.96C1184.25 232.96 1185.53 234.32 1185.53 236C1185.53 237.68 1184.25 239.04 1182.62 239.04ZM1188.62 240H1189.87V235.856C1189.87 234 1190.46 233.152 1192.07 233.152H1193.07V232H1192.07C1191.05 232 1190.28 232.416 1189.85 233.152V232H1188.62V240ZM1198.26 240.16C1200.05 240.16 1201.3 239.328 1202.03 237.936L1200.96 237.408C1200.47 238.384 1199.55 239.056 1198.26 239.056C1196.66 239.056 1195.41 237.984 1195.25 236.4H1202.29V235.872C1202.29 233.424 1200.5 231.84 1198.19 231.84C1195.79 231.84 1194.05 233.664 1194.05 236.064C1194.05 238.416 1195.71 240.16 1198.26 240.16ZM1198.19 232.944C1199.75 232.944 1200.8 233.824 1201.03 235.264H1195.31C1195.63 233.92 1196.75 232.944 1198.19 232.944ZM1203.54 241.872H1204.53L1205.53 238.608H1204.2L1203.54 241.872ZM1211.46 240H1212.71V236.368H1215.11C1217.66 236.368 1219.37 234.608 1219.37 232.336C1219.37 230.064 1217.66 228.32 1215.11 228.32H1211.46V240ZM1215.03 229.472C1216.95 229.472 1218.1 230.704 1218.1 232.336C1218.1 233.952 1216.95 235.2 1215.03 235.2H1212.71V229.472H1215.03ZM1224.83 240.16C1225.86 240.16 1227.09 239.648 1227.78 238.688V240H1229.01V232H1227.78V233.312C1227.09 232.368 1225.86 231.84 1224.83 231.84C1222.45 231.84 1220.74 233.712 1220.74 236C1220.74 238.288 1222.48 240.16 1224.83 240.16ZM1224.9 239.04C1223.26 239.04 1221.98 237.68 1221.98 236C1221.98 234.32 1223.26 232.96 1224.9 232.96C1226.61 232.96 1227.89 234.336 1227.89 236C1227.89 237.68 1226.61 239.04 1224.9 239.04ZM1236.78 240H1238.22L1234.89 235.392L1238.21 232H1236.64L1232.38 236.352V228.32H1231.17V240H1232.38V237.776L1234 236.128L1236.78 240ZM1239.73 240H1240.98V232H1239.73V240ZM1239.73 230.608H1240.98V228.32H1239.73V230.608ZM1245.81 240.16C1248.03 240.16 1248.88 238.72 1248.88 237.696C1248.88 236.096 1247.45 235.696 1246.16 235.392C1245.07 235.136 1244.06 234.944 1244.06 234.128C1244.06 233.456 1244.65 232.88 1245.76 232.88C1246.65 232.88 1247.34 233.216 1247.89 233.824L1248.8 233.056C1248.11 232.256 1246.94 231.824 1245.76 231.824C1243.97 231.824 1242.85 232.96 1242.85 234.144C1242.85 235.712 1244.22 236.128 1245.5 236.432C1246.61 236.688 1247.66 236.848 1247.66 237.696C1247.66 238.432 1247.05 239.072 1245.85 239.072C1244.83 239.072 1244.03 238.56 1243.44 237.824L1242.46 238.624C1243.25 239.584 1244.41 240.16 1245.81 240.16ZM1250.11 233.12H1251.48V236.944C1251.48 239.328 1252.11 240 1254.44 240H1254.62V238.832C1253.03 238.832 1252.73 238.56 1252.73 236.928V233.12H1254.62V232H1252.73V229.424L1251.48 230.112V232H1250.11V233.12ZM1259.93 240.16C1260.95 240.16 1262.18 239.648 1262.87 238.688V240H1264.1V232H1262.87V233.312C1262.18 232.368 1260.95 231.84 1259.93 231.84C1257.54 231.84 1255.83 233.712 1255.83 236C1255.83 238.288 1257.57 240.16 1259.93 240.16ZM1259.99 239.04C1258.36 239.04 1257.08 237.68 1257.08 236C1257.08 234.32 1258.36 232.96 1259.99 232.96C1261.7 232.96 1262.98 234.336 1262.98 236C1262.98 237.68 1261.7 239.04 1259.99 239.04ZM1266.34 240H1267.57V235.568C1267.57 234.112 1268.64 232.96 1270.1 232.96C1271.7 232.96 1272.5 234 1272.5 235.552V240H1273.75V235.552C1273.75 233.248 1272.42 231.84 1270.27 231.84C1269.07 231.84 1268.11 232.368 1267.55 233.184V232H1266.34V240Z" fill="#657582"/>
<path d="M1155.22 211.952L1156.06 210.976C1153.74 209.392 1152.11 207.264 1152.11 203.984C1152.11 200.72 1153.76 198.608 1156.05 197.008L1155.18 196.032C1152.8 197.792 1150.78 200.176 1150.78 204C1150.78 207.808 1152.78 210.256 1155.22 211.952ZM1162.7 208H1163.95V205.312H1165.63V204.176H1163.95V196.32H1162.68L1157.56 204.16V205.312H1162.7V208ZM1158.92 204.176L1162.7 198.4V204.176H1158.92ZM1171 208.16C1173.22 208.16 1174.95 206.48 1174.95 204.288C1174.95 202.064 1173.3 200.4 1171.18 200.4C1170.79 200.4 1170.44 200.448 1170.1 200.528L1172.86 196.32H1171.35L1167.9 201.616C1167.38 202.336 1167.05 203.312 1167.05 204.288C1167.05 206.432 1168.71 208.16 1171 208.16ZM1170.98 207.024C1169.48 207.024 1168.26 205.776 1168.26 204.272C1168.26 202.752 1169.48 201.536 1170.98 201.536C1172.49 201.536 1173.74 202.752 1173.74 204.288C1173.74 205.792 1172.49 207.024 1170.98 207.024ZM1180.44 208.16C1182.74 208.16 1184.36 206.592 1184.36 204.272C1184.36 201.616 1182.41 200.368 1180.38 200.368C1179.43 200.368 1178.65 200.688 1178.07 201.152L1178.63 197.504H1183.56V196.32H1177.58L1176.68 202.32L1177.93 202.72C1178.46 202 1179.29 201.52 1180.38 201.52C1181.74 201.52 1183.1 202.48 1183.1 204.272C1183.1 205.904 1181.99 206.992 1180.44 206.992C1179.1 206.992 1178.25 206.256 1177.74 205.312L1176.57 206.064C1177.27 207.312 1178.68 208.16 1180.44 208.16ZM1189.89 204C1189.89 207.28 1188.26 209.408 1185.94 210.992L1186.79 211.968C1189.22 210.272 1191.22 207.824 1191.22 204.016C1191.22 200.192 1189.21 197.808 1186.82 196.048L1185.96 197.024C1188.25 198.624 1189.89 200.736 1189.89 204ZM1196.35 208L1199.81 202.704C1200.32 201.984 1200.66 201.008 1200.66 200.032C1200.66 197.888 1198.99 196.16 1196.7 196.16C1194.48 196.16 1192.75 197.84 1192.75 200.032C1192.75 202.256 1194.4 203.92 1196.53 203.92C1196.9 203.92 1197.26 203.888 1197.6 203.792L1194.85 208H1196.35ZM1196.72 202.784C1195.22 202.784 1193.97 201.568 1193.97 200.032C1193.97 198.528 1195.22 197.296 1196.72 197.296C1198.22 197.296 1199.44 198.544 1199.44 200.048C1199.44 201.568 1198.22 202.784 1196.72 202.784ZM1206.14 208.16C1208.45 208.16 1210.06 206.592 1210.06 204.272C1210.06 201.616 1208.11 200.368 1206.08 200.368C1205.13 200.368 1204.35 200.688 1203.77 201.152L1204.33 197.504H1209.26V196.32H1203.28L1202.38 202.32L1203.63 202.72C1204.16 202 1204.99 201.52 1206.08 201.52C1207.44 201.52 1208.8 202.48 1208.8 204.272C1208.8 205.904 1207.69 206.992 1206.14 206.992C1204.8 206.992 1203.95 206.256 1203.44 205.312L1202.27 206.064C1202.97 207.312 1204.38 208.16 1206.14 208.16ZM1216.62 208H1217.87V205.312H1219.55V204.176H1217.87V196.32H1216.6L1211.48 204.16V205.312H1216.62V208ZM1212.84 204.176L1216.62 198.4V204.176H1212.84ZM1221.05 204.544H1226.97V203.456H1221.05V204.544ZM1232.49 208.16C1234.98 208.16 1236.42 206.688 1236.42 204.704C1236.42 203.472 1235.7 202.416 1234.57 201.824C1235.51 201.264 1236.1 200.352 1236.1 199.264C1236.1 197.488 1234.61 196.16 1232.49 196.16C1230.31 196.16 1228.9 197.488 1228.9 199.264C1228.9 200.352 1229.45 201.264 1230.39 201.824C1229.25 202.416 1228.55 203.472 1228.55 204.704C1228.55 206.688 1229.89 208.16 1232.49 208.16ZM1232.49 207.024C1230.74 207.024 1229.75 205.968 1229.75 204.704C1229.75 203.472 1230.68 202.4 1232.49 202.4C1234.29 202.4 1235.22 203.472 1235.22 204.704C1235.22 205.968 1234.23 207.024 1232.49 207.024ZM1232.49 201.28C1230.84 201.28 1230.05 200.4 1230.05 199.264C1230.05 198.16 1230.93 197.264 1232.49 197.264C1234.09 197.264 1234.93 198.16 1234.93 199.264C1234.93 200.4 1234.13 201.28 1232.49 201.28ZM1243 208H1244.24V205.312H1245.92V204.176H1244.24V196.32H1242.98L1237.86 204.16V205.312H1243V208ZM1239.22 204.176L1243 198.4V204.176H1239.22ZM1251.3 208.16C1253.79 208.16 1255.23 206.688 1255.23 204.704C1255.23 203.472 1254.51 202.416 1253.38 201.824C1254.32 201.264 1254.91 200.352 1254.91 199.264C1254.91 197.488 1253.43 196.16 1251.3 196.16C1249.12 196.16 1247.71 197.488 1247.71 199.264C1247.71 200.352 1248.26 201.264 1249.2 201.824C1248.07 202.416 1247.36 203.472 1247.36 204.704C1247.36 206.688 1248.71 208.16 1251.3 208.16ZM1251.3 207.024C1249.55 207.024 1248.56 205.968 1248.56 204.704C1248.56 203.472 1249.49 202.4 1251.3 202.4C1253.11 202.4 1254.03 203.472 1254.03 204.704C1254.03 205.968 1253.04 207.024 1251.3 207.024ZM1251.3 201.28C1249.65 201.28 1248.87 200.4 1248.87 199.264C1248.87 198.16 1249.75 197.264 1251.3 197.264C1252.9 197.264 1253.75 198.16 1253.75 199.264C1253.75 200.4 1252.95 201.28 1251.3 201.28ZM1258.51 208H1259.87L1264.74 197.408V196.32H1256.67V197.52H1263.33L1258.51 208Z" fill="#657582"/>
<path d="M1155.06 176.16C1157.34 176.16 1159.04 174.432 1159.04 172.192V164.32H1157.79V172.256C1157.79 173.744 1156.61 174.976 1155.06 174.976C1153.5 174.976 1152.34 173.744 1152.34 172.256V164.32H1151.09V172.192C1151.09 174.432 1152.77 176.16 1155.06 176.16ZM1161.42 176H1162.67V164.32H1161.42V176ZM1164.96 176H1166.21V173.808H1164.96V176ZM1172.07 176.16C1173.09 176.16 1174.32 175.648 1175.01 174.688V176H1176.2V164.32H1175V169.296C1174.31 168.352 1173.09 167.84 1172.07 167.84C1169.68 167.84 1167.97 169.712 1167.97 172C1167.97 174.288 1169.72 176.16 1172.07 176.16ZM1172.13 175.04C1170.5 175.04 1169.22 173.68 1169.22 172C1169.22 170.32 1170.5 168.96 1172.13 168.96C1173.84 168.96 1175.12 170.336 1175.12 172C1175.12 173.68 1173.84 175.04 1172.13 175.04ZM1182.26 176.16C1184.05 176.16 1185.3 175.328 1186.03 173.936L1184.96 173.408C1184.47 174.384 1183.55 175.056 1182.26 175.056C1180.66 175.056 1179.41 173.984 1179.25 172.4H1186.29V171.872C1186.29 169.424 1184.5 167.84 1182.19 167.84C1179.79 167.84 1178.05 169.664 1178.05 172.064C1178.05 174.416 1179.71 176.16 1182.26 176.16ZM1182.19 168.944C1183.75 168.944 1184.8 169.824 1185.03 171.264H1179.31C1179.63 169.92 1180.75 168.944 1182.19 168.944ZM1190.84 176.16C1193.06 176.16 1193.91 174.72 1193.91 173.696C1193.91 172.096 1192.49 171.696 1191.19 171.392C1190.1 171.136 1189.09 170.944 1189.09 170.128C1189.09 169.456 1189.69 168.88 1190.79 168.88C1191.69 168.88 1192.37 169.216 1192.92 169.824L1193.83 169.056C1193.14 168.256 1191.97 167.824 1190.79 167.824C1189 167.824 1187.88 168.96 1187.88 170.144C1187.88 171.712 1189.25 172.128 1190.53 172.432C1191.64 172.688 1192.69 172.848 1192.69 173.696C1192.69 174.432 1192.09 175.072 1190.89 175.072C1189.86 175.072 1189.06 174.56 1188.47 173.824L1187.49 174.624C1188.28 175.584 1189.45 176.16 1190.84 176.16ZM1201.38 176H1202.82L1199.49 171.392L1202.8 168H1201.23L1196.98 172.352V164.32H1195.76V176H1196.98V173.776L1198.59 172.128L1201.38 176Z" fill="#657582"/>
<path d="M1159.02 134.22C1162.3 134.22 1164.96 132.394 1166.35 129.71L1164.19 128.566C1163.27 130.502 1161.48 131.866 1159 131.866C1155.68 131.866 1153.17 129.226 1153.17 125.97C1153.17 122.67 1155.68 120.03 1159.02 120.03C1161.29 120.03 1163.05 121.218 1164.04 123.066L1166.13 121.768C1164.7 119.348 1162.06 117.72 1159.02 117.72C1154.42 117.72 1150.77 121.284 1150.77 125.97C1150.77 130.524 1154.27 134.22 1159.02 134.22ZM1173.4 134.22C1176.57 134.22 1179.12 131.69 1179.12 128.5C1179.12 125.288 1176.57 122.78 1173.4 122.78C1170.23 122.78 1167.7 125.288 1167.7 128.5C1167.7 131.69 1170.23 134.22 1173.4 134.22ZM1173.4 132.02C1171.51 132.02 1170.03 130.436 1170.03 128.5C1170.03 126.564 1171.51 124.98 1173.4 124.98C1175.29 124.98 1176.79 126.564 1176.79 128.5C1176.79 130.436 1175.29 132.02 1173.4 132.02ZM1180.99 134H1183.34V127.95C1183.34 126.014 1184.55 124.826 1186.13 124.826C1187.89 124.826 1188.8 125.97 1188.8 127.774V134H1191.17V127.576C1191.17 124.584 1189.48 122.78 1186.71 122.78C1185.25 122.78 1184.07 123.418 1183.32 124.43V123H1180.99V134ZM1192.38 125.112H1194.25V129.512C1194.25 132.944 1195.26 134 1198.61 134H1198.96V131.778C1196.94 131.778 1196.63 131.47 1196.63 129.49V125.112H1198.96V123H1196.63V119.106L1194.25 120.404V123H1192.38V125.112ZM1205.6 134.22C1207.05 134.22 1208.44 133.56 1209.27 132.482V134H1211.63V123H1209.27V124.43C1208.46 123.418 1207.07 122.78 1205.62 122.78C1202.74 122.78 1200.12 124.98 1200.12 128.5C1200.12 131.998 1202.8 134.22 1205.6 134.22ZM1205.93 132.064C1203.97 132.064 1202.45 130.48 1202.45 128.478C1202.45 126.476 1203.97 124.914 1205.93 124.914C1207.93 124.914 1209.4 126.52 1209.4 128.478C1209.4 130.458 1207.93 132.064 1205.93 132.064ZM1219.25 134.22C1221.82 134.22 1223.65 132.79 1224.53 130.766L1222.39 129.864C1221.89 131.096 1220.79 132.02 1219.29 132.02C1217.31 132.02 1215.81 130.436 1215.81 128.5C1215.81 126.542 1217.29 124.98 1219.25 124.98C1220.68 124.98 1221.8 125.772 1222.35 127.048L1224.46 126.146C1223.62 124.166 1221.69 122.78 1219.25 122.78C1216.03 122.78 1213.5 125.266 1213.5 128.5C1213.5 131.668 1215.99 134.22 1219.25 134.22ZM1225.58 125.112H1227.45V129.512C1227.45 132.944 1228.46 134 1231.8 134H1232.15V131.778C1230.13 131.778 1229.82 131.47 1229.82 129.49V125.112H1232.15V123H1229.82V119.106L1227.45 120.404V123H1225.58V125.112Z" fill="#2C3847"/>
<defs>
<linearGradient id="paint0_linear_711_12" x1="720" y1="360" x2="720" y2="420" gradientUnits="userSpaceOnUse">
<stop stop-color="#64BB47"/>
<stop offset="1" stop-color="#2C9553"/>
</linearGradient>
</defs>
</svg>
