<svg width="555" height="247" viewBox="0 0 555 247" fill="none" xmlns="http://www.w3.org/2000/svg">
<path d="M16.708 56.76C26.132 56.76 31.832 50.604 31.832 40.192V0.519999H23.624V40.724C23.624 45.74 21.116 49.084 16.556 49.084C12.756 49.084 10.02 46.5 8.88 43.004L0.976 46.424C3.104 52.58 8.956 56.76 16.708 56.76ZM55.3409 56.76C60.2049 56.76 64.3089 54.556 66.8929 51.06V56H74.9489V18H66.8169V38.9C66.8169 45.512 62.6369 49.616 57.2409 49.616C51.0849 49.616 48.0449 45.664 48.0449 39.432V18H39.7609V40.116C39.7609 50.528 45.3089 56.76 55.3409 56.76ZM96.7194 56.76C107.511 56.836 112.071 49.768 112.071 44.524C112.071 36.62 105.003 34.568 98.7714 33.2C93.2994 31.984 89.8034 31.224 89.8034 28.488C89.8034 26.056 92.0074 23.928 96.3394 23.928C100.139 23.928 103.103 25.6 104.851 28.26L111.615 24.536C108.651 19.976 103.407 17.164 96.3394 17.164C87.3714 17.088 81.6714 22.636 81.6714 28.64C81.6714 36.468 88.3594 38.596 94.8194 39.964C99.6074 40.952 104.015 41.636 104.015 44.676C104.015 47.336 101.659 49.692 97.0994 49.692C92.7674 49.692 89.4234 47.64 87.3714 44.144L80.0754 47.944C83.2674 53.568 88.8154 56.76 96.7194 56.76ZM116.319 25.296H122.779V40.496C122.779 52.352 126.275 56 137.827 56H139.043V48.324C132.051 48.324 130.987 47.26 130.987 40.42V25.296H139.043V18H130.987V4.548L122.779 9.032V18H116.319V25.296ZM1.204 120.296H7.664V151H15.872V120.296H23.928V113H15.872V111.1C15.872 104.26 16.708 103.044 23.928 103.044V95.52H23.244C11.312 95.52 7.664 99.168 7.664 111.024V113H1.204V120.296ZM46.2797 151.76C57.2237 151.76 66.0397 143.02 66.0397 132C66.0397 120.904 57.2237 112.24 46.2797 112.24C35.3357 112.24 26.5957 120.904 26.5957 132C26.5957 143.02 35.3357 151.76 46.2797 151.76ZM46.2797 144.16C39.7437 144.16 34.6517 138.688 34.6517 132C34.6517 125.312 39.7437 119.84 46.2797 119.84C52.8157 119.84 57.9837 125.312 57.9837 132C57.9837 138.688 52.8157 144.16 46.2797 144.16ZM91.2563 151.76C102.2 151.76 111.016 143.02 111.016 132C111.016 120.904 102.2 112.24 91.2563 112.24C80.3123 112.24 71.5723 120.904 71.5723 132C71.5723 143.02 80.3123 151.76 91.2563 151.76ZM91.2563 144.16C84.7203 144.16 79.6283 138.688 79.6283 132C79.6283 125.312 84.7203 119.84 91.2563 119.84C97.7923 119.84 102.96 125.312 102.96 132C102.96 138.688 97.7923 144.16 91.2563 144.16ZM135.473 151.76C140.489 151.76 145.277 149.48 148.165 145.756V151H156.221V95.52H148.165V117.94C145.353 114.444 140.565 112.24 135.549 112.24C125.593 112.24 116.549 119.84 116.549 132C116.549 144.084 125.821 151.76 135.473 151.76ZM136.613 144.312C129.849 144.312 124.605 138.84 124.605 131.924C124.605 125.008 129.849 119.612 136.613 119.612C143.529 119.612 148.621 125.16 148.621 131.924C148.621 138.764 143.529 144.312 136.613 144.312ZM181.26 120.296H187.72V135.496C187.72 147.352 191.216 151 202.768 151H203.984V143.324C196.992 143.324 195.928 142.26 195.928 135.42V120.296H203.984V113H195.928V99.548L187.72 104.032V113H181.26V120.296ZM227.67 151.76C238.614 151.76 247.43 143.02 247.43 132C247.43 120.904 238.614 112.24 227.67 112.24C216.726 112.24 207.986 120.904 207.986 132C207.986 143.02 216.726 151.76 227.67 151.76ZM227.67 144.16C221.134 144.16 216.042 138.688 216.042 132C216.042 125.312 221.134 119.84 227.67 119.84C234.206 119.84 239.374 125.312 239.374 132C239.374 138.688 234.206 144.16 227.67 144.16ZM272.811 151H280.943V95.52H272.811V151ZM289.138 151H297.346V113H289.138V151ZM289.138 107.756H297.346V97.116H289.138V107.756ZM317.559 151H325.691L340.055 113H331.619L321.663 140.436L311.555 113H302.967L317.559 151ZM362.015 151.76C370.451 151.76 376.455 147.656 379.799 141.424L373.111 137.7C371.135 141.804 367.183 144.54 362.015 144.54C355.403 144.54 350.843 140.664 349.779 134.812H381.243V131.62C381.243 120.372 372.959 112.24 361.711 112.24C350.539 112.24 341.951 120.98 341.951 132.152C341.951 143.172 350.007 151.76 362.015 151.76ZM361.711 119.384C367.563 119.384 371.743 122.424 372.959 127.896H350.159C351.679 122.88 356.087 119.384 361.711 119.384ZM424.258 151.76C429.274 151.76 434.062 149.48 436.95 145.756V151H445.082V113H436.95V117.94C434.138 114.444 429.35 112.24 424.334 112.24C414.378 112.24 405.334 119.84 405.334 132C405.334 144.084 414.606 151.76 424.258 151.76ZM425.398 144.312C418.634 144.312 413.39 138.84 413.39 131.924C413.39 125.008 418.634 119.612 425.398 119.612C432.314 119.612 437.406 125.16 437.406 131.924C437.406 138.764 432.314 144.312 425.398 144.312ZM2.952 246H11.084V225.1C11.084 218.412 15.264 214.308 20.66 214.308C26.816 214.308 29.856 218.26 29.856 224.568V246H38.14V223.808C38.14 213.472 32.288 207.24 22.712 207.24C17.772 207.24 13.592 209.444 11.008 212.788V190.52H2.952V246ZM64.6207 246.76C73.0567 246.76 79.0607 242.656 82.4047 236.424L75.7167 232.7C73.7407 236.804 69.7887 239.54 64.6207 239.54C58.0087 239.54 53.4487 235.664 52.3847 229.812H83.8487V226.62C83.8487 215.372 75.5647 207.24 64.3167 207.24C53.1447 207.24 44.5567 215.98 44.5567 227.152C44.5567 238.172 52.6127 246.76 64.6207 246.76ZM64.3167 214.384C70.1687 214.384 74.3487 217.424 75.5647 222.896H52.7647C54.2847 217.88 58.6927 214.384 64.3167 214.384ZM108.012 246.76C113.028 246.76 117.816 244.48 120.704 240.756V246H128.836V208H120.704V212.94C117.892 209.444 113.104 207.24 108.088 207.24C98.1319 207.24 89.0879 214.84 89.0879 227C89.0879 239.084 98.3599 246.76 108.012 246.76ZM109.152 239.312C102.388 239.312 97.1439 233.84 97.1439 226.924C97.1439 220.008 102.388 214.612 109.152 214.612C116.068 214.612 121.16 220.16 121.16 226.924C121.16 233.764 116.068 239.312 109.152 239.312ZM136.694 246H144.826V190.52H136.694V246ZM151.053 215.296H157.513V230.496C157.513 242.352 161.009 246 172.561 246H173.777V238.324C166.785 238.324 165.721 237.26 165.721 230.42V215.296H173.777V208H165.721V194.548L157.513 199.032V208H151.053V215.296ZM180.632 246H188.764V225.1C188.764 218.412 192.944 214.308 198.34 214.308C204.496 214.308 207.536 218.26 207.536 224.568V246H215.82V223.808C215.82 213.472 209.968 207.24 200.392 207.24C195.452 207.24 191.272 209.444 188.688 212.788V190.52H180.632V246ZM223.528 246H231.736V208H223.528V246ZM223.528 202.756H231.736V192.116H223.528V202.756ZM258.257 246.76C266.693 246.76 272.697 242.656 276.041 236.424L269.353 232.7C267.377 236.804 263.425 239.54 258.257 239.54C251.645 239.54 247.085 235.664 246.021 229.812H277.485V226.62C277.485 215.372 269.201 207.24 257.953 207.24C246.781 207.24 238.193 215.98 238.193 227.152C238.193 238.172 246.249 246.76 258.257 246.76ZM257.953 214.384C263.805 214.384 267.985 217.424 269.201 222.896H246.401C247.921 217.88 252.329 214.384 257.953 214.384ZM284.017 246H292.225V227.152C292.225 219.248 294.809 215.752 301.421 215.752H307.121V208H302.637C297.621 208 294.125 210.128 292.149 213.852V208H284.017V246ZM332.557 246H340.689V190.52H332.557V246ZM348.884 246H357.092V208H348.884V246ZM348.884 202.756H357.092V192.116H348.884V202.756ZM363.169 215.296H369.629V246H377.837V215.296H385.893V208H377.837V206.1C377.837 199.26 378.673 198.044 385.893 198.044V190.52H385.209C373.277 190.52 369.629 194.168 369.629 206.024V208H363.169V215.296ZM408.625 246.76C417.061 246.76 423.065 242.656 426.409 236.424L419.721 232.7C417.745 236.804 413.793 239.54 408.625 239.54C402.013 239.54 397.453 235.664 396.389 229.812H427.853V226.62C427.853 215.372 419.569 207.24 408.321 207.24C397.149 207.24 388.561 215.98 388.561 227.152C388.561 238.172 396.617 246.76 408.625 246.76ZM408.321 214.384C414.173 214.384 418.353 217.424 419.569 222.896H396.769C398.289 217.88 402.697 214.384 408.321 214.384Z" fill="#181D19"/>
<path d="M165.053 56H198.341V48.096H173.337V32.06H198.341V24.232H173.337V8.348H198.341V0.519999H165.053V56ZM223.348 56.76C228.364 56.76 233.152 54.48 236.04 50.756V56H244.172V18H236.04V22.94C233.228 19.444 228.44 17.24 223.424 17.24C213.468 17.24 204.424 24.84 204.424 37C204.424 49.084 213.696 56.76 223.348 56.76ZM224.488 49.312C217.724 49.312 212.48 43.84 212.48 36.924C212.48 30.008 217.724 24.612 224.488 24.612C231.404 24.612 236.496 30.16 236.496 36.924C236.496 43.764 231.404 49.312 224.488 49.312ZM250.358 25.296H256.818V40.496C256.818 52.352 260.314 56 271.866 56H273.082V48.324C266.09 48.324 265.026 47.26 265.026 40.42V25.296H273.082V18H265.026V4.548L256.818 9.032V18H250.358V25.296ZM298.788 56H306.92V35.1C306.92 28.412 311.1 24.308 316.496 24.308C322.652 24.308 325.692 28.26 325.692 34.568V56H333.976V33.808C333.976 23.472 328.124 17.24 318.548 17.24C313.608 17.24 309.428 19.444 306.844 22.788V0.519999H298.788V56ZM360.457 56.76C368.893 56.76 374.897 52.656 378.241 46.424L371.553 42.7C369.577 46.804 365.625 49.54 360.457 49.54C353.845 49.54 349.285 45.664 348.221 39.812H379.685V36.62C379.685 25.372 371.401 17.24 360.153 17.24C348.981 17.24 340.393 25.98 340.393 37.152C340.393 48.172 348.449 56.76 360.457 56.76ZM360.153 24.384C366.005 24.384 370.185 27.424 371.401 32.896H348.601C350.121 27.88 354.529 24.384 360.153 24.384ZM403.848 56.76C408.864 56.76 413.652 54.48 416.54 50.756V56H424.672V18H416.54V22.94C413.728 19.444 408.94 17.24 403.924 17.24C393.968 17.24 384.924 24.84 384.924 37C384.924 49.084 394.196 56.76 403.848 56.76ZM404.988 49.312C398.224 49.312 392.98 43.84 392.98 36.924C392.98 30.008 398.224 24.612 404.988 24.612C411.904 24.612 416.996 30.16 416.996 36.924C416.996 43.764 411.904 49.312 404.988 49.312ZM432.53 56H440.662V0.519999H432.53V56ZM446.889 25.296H453.349V40.496C453.349 52.352 456.845 56 468.397 56H469.613V48.324C462.621 48.324 461.557 47.26 461.557 40.42V25.296H469.613V18H461.557V4.548L453.349 9.032V18H446.889V25.296ZM476.468 56H484.6V35.1C484.6 28.412 488.78 24.308 494.176 24.308C500.332 24.308 503.372 28.26 503.372 34.568V56H511.656V33.808C511.656 23.472 505.804 17.24 496.228 17.24C491.288 17.24 487.108 19.444 484.524 22.788V0.519999H476.468V56ZM522.755 73.556H531.115L554.067 18H545.479L534.991 44.372L523.895 18H515.155L530.887 54.024L522.755 73.556Z" fill="#5FB848"/>
</svg>
